<?xml version="1.0" encoding="UTF-8"?>
<svg id="Layer_1" xmlns="http://www.w3.org/2000/svg" version="1.1" viewBox="0 0 841.89 595.28">
  <!-- Generator: Adobe Illustrator 29.6.1, SVG Export Plug-In . SVG Version: 2.1.1 Build 9)  -->
  <defs>
    <style>
      .st0 {
        font-size: 53.08px;
      }

      .st0, .st1, .st2 {
        fill: #0d2f4f;
      }

      .st0, .st2 {
        font-family: Poppins-Bold, Poppins;
        font-weight: 700;
      }

      .st3 {
        display: none;
        fill: #f4f4f5;
      }

      .st4 {
        font-family: Poppins-SemiBold, Poppins;
        font-size: 16.37px;
        font-weight: 600;
      }

      .st4, .st5 {
        fill: #e86424;
      }

      .st2 {
        font-size: 69.55px;
      }
    </style>
  </defs>
  <rect class="st3" x="194.43" y="36.28" width="505.53" height="505.53"/>
  <g>
    <g>
      <path class="st1" d="M395.54,203.05c-94.71-49.95-174.53,0-174.53,0v93.58c3.02,51.49,86.86,94.33,86.86,94.33,88.52-46.85,87.67-94.71,87.67-94.71v-93.2ZM307.91,378.47s-73.86-37.74-76.53-83.11v-87.03s70.21-36.64,153.79,0v86.7s.74,42.17-77.26,83.45Z"/>
      <polygon class="st1" points="259.42 319.01 264.69 313.23 264.69 249.48 255.15 249.48 255.15 313.74 259.42 319.01"/>
      <polygon class="st1" points="354.55 319.01 359.82 313.23 359.82 249.48 350.28 249.48 350.28 313.74 354.55 319.01"/>
      <polygon class="st5" points="347.02 250.24 355.17 242.08 375.63 259.27 356.55 259.27 347.02 250.24"/>
      <polygon class="st5" points="240.35 259.27 259.42 259.27 308.27 218.61 328.69 235.43 337.48 226.64 308.27 202.8 240.35 259.27"/>
      <path class="st1" d="M345.01,318c-.75-25.85-22.59-32.1-22.59-32.1-1.76,14.08-4.27,15.53-4.27,15.53v-20.33c-9.79-4.27-19.83,0-19.83,0v21.08c-4.27-3.51-4.52-16.29-4.52-16.29-23.34,9.31-22.34,31.85-22.34,31.85-13.3,6.02-1.25,15.56-1.25,15.56,36.15,24.93,72.03,2.51,72.03,2.51,18.57-11.04,2.76-17.82,2.76-17.82ZM305.35,333.06s-23.58.35-29.62-7.03c0,0,45.68,5.27,65.76,0,0,0-8.03,8.28-36.14,7.03Z"/>
      <path class="st5" d="M314.89,259.27l40.16-39.91s9.79-2.76,6.15,6.15l-42.79,43.55s-2.76,3.26-6.02,1l-17.57-17.57s-2.46-6.83,6.68-6.68l13.4,13.46Z"/>
    </g>
    <text class="st0" transform="translate(414.6 231.03) scale(1.05 1)"><tspan x="0" y="0">THE</tspan></text>
    <text class="st2" transform="translate(414.6 292.25) scale(1.05 1)"><tspan x="0" y="0">BUILD</tspan></text>
    <text class="st2" transform="translate(414.6 354.83) scale(1.05 1)"><tspan x="0" y="0">CREW</tspan></text>
    <text class="st4" transform="translate(414.6 387.54) scale(1.05 1)"><tspan x="0" y="0">Vetted. Matched. Delivered.</tspan></text>
  </g>
</svg>