<svg transform="scale(1)" version="1.1" id="xKeqf4iRcm" xmlns="http://www.w3.org/2000/svg" xmlns:xlink="http://www.w3.org/1999/xlink" x="0px" y="0px" viewBox="0 0 500 500" xml:space="preserve" class="pbimage_pbimage__wrapper__image__0LEis false"><title>Approval 4</title><style type="text/css"> .st0{fill:#87CCDB;} .st1{fill:#F2EBEB;} .st2{fill:#469F78;} .st3{fill:#EA8383;} .st4{fill:#000001;} .st5{fill:#F3CB5C;} .st6{clip-path:url(#SVGID_2_-xKeqf4iRcm);} .st7{fill:#FFFFFF;} .st8{fill:#A04040;}
 .st8{fill:#A04040;}
 .st7{fill:#FFFFFF;}
 .st5{fill:#F3CB5C;}
 .st4{fill:#000001;}
 .st3{fill:#EA8383;}
 .st2{fill:#469F78;}
 .st1{fill:#F2EBEB;}
 .st0{fill:#87CCDB;}</style><g id="paper"><g id="paper-2"><path class="st0" d="M420.2,113.1h61.1c0,0,12.5-60.1-15.5-61.1S415.2,75,420.2,113.1z"></path><path class="st1" d="M465.8,51.9c0,0-31.1,4.6-32,27.9s11,241,0,259.2s-47.2,13.2-48.8-21.3l-162.7-3c0,0,1-160,0-204.6
			s6-54,17.7-60.3S465.8,51.9,465.8,51.9z"></path><path class="st0" d="M222.2,355.5l198-6c0,0-30.1-2.4-35.2-31.6l-179.4-6.7C205.6,311.1,196.9,343.4,222.2,355.5z"></path><path class="st0" d="M340.2,93.3c-1.5,0.4-3.1,0.6-4.7,0.8c-1.6,0.2-3.2,0.2-4.7,0.2c-1.6,0-3.1-0.1-4.7-0.2
			c-1.6-0.1-3.2-0.4-4.7-0.8c1.6-0.4,3.1-0.7,4.7-0.8c1.6-0.1,3.1-0.2,4.7-0.2c1.6,0,3.2,0.1,4.7,0.2
			C337.1,92.6,338.7,92.9,340.2,93.3z"></path><path class="st0" d="M411,128.7c-6.7,0.4-13.4,0.7-20.1,0.8c-6.7,0.2-13.4,0.2-20.1,0.2s-13.4-0.1-20.1-0.2s-13.4-0.4-20.1-0.8
			c6.7-0.4,13.4-0.6,20.1-0.8c6.7-0.2,13.4-0.2,20.1-0.2s13.4,0.1,20.1,0.2C397.7,128.1,404.4,128.3,411,128.7z"></path><path class="st0" d="M307.3,128.7c-3.9,0.4-7.8,0.6-11.8,0.8s-7.8,0.2-11.8,0.2s-7.9-0.1-11.8-0.2s-7.8-0.4-11.8-0.8
			c3.9-0.4,7.8-0.6,11.8-0.8c3.9-0.1,7.9-0.2,11.8-0.2s7.8,0.1,11.8,0.2C299.5,128.1,303.4,128.3,307.3,128.7z"></path><path class="st0" d="M406,153.2c-2,0.4-4.1,0.6-6.1,0.8c-2.1,0.1-4.1,0.2-6.1,0.2c-2,0-4.1-0.1-6.1-0.2c-2.1-0.1-4.1-0.4-6.1-0.8
			c2-0.4,4.1-0.7,6.1-0.8c2-0.1,4.1-0.2,6.1-0.2s4.1,0.1,6.1,0.2C401.9,152.5,404,152.8,406,153.2z"></path><path class="st0" d="M362.6,153.2c-8.5,0.4-17.1,0.6-25.6,0.8c-8.5,0.2-17.1,0.2-25.6,0.2s-17.1-0.1-25.6-0.2s-17.1-0.4-25.6-0.8
			c8.5-0.4,17-0.6,25.6-0.8c8.5-0.2,17-0.2,25.6-0.2s17,0.1,25.6,0.2S354.1,152.8,362.6,153.2z"></path><path class="st0" d="M406,181.4c-10.2,0.4-20.4,0.6-30.6,0.8c-10.2,0.2-20.4,0.2-30.6,0.2s-20.4-0.1-30.6-0.2s-20.4-0.4-30.5-0.8
			c10.2-0.4,20.4-0.7,30.5-0.8c10.2-0.2,20.4-0.2,30.6-0.2s20.4,0.1,30.6,0.2S395.8,181,406,181.4z"></path><path class="st0" d="M406,206.8c-7.9,0.4-15.8,0.7-23.6,0.8c-7.9,0.2-15.8,0.2-23.6,0.2s-15.8-0.1-23.6-0.2s-15.8-0.4-23.6-0.8
			c7.9-0.4,15.8-0.6,23.6-0.8c7.9-0.2,15.8-0.2,23.6-0.2s15.8,0.1,23.6,0.2S398.1,206.4,406,206.8z"></path><path class="st0" d="M292.1,206.8c-3,0.4-6.1,0.6-9.1,0.8s-6.1,0.2-9.1,0.2s-6-0.1-9.1-0.2s-6.1-0.4-9.1-0.8
			c3-0.4,6.1-0.6,9.1-0.8s6-0.2,9.1-0.2s6.1,0.1,9.1,0.2S289,206.4,292.1,206.8z"></path><path class="st0" d="M402,233.1c-2.8,0.4-5.6,0.6-8.4,0.8s-5.6,0.2-8.4,0.2s-5.6-0.1-8.4-0.2s-5.6-0.4-8.4-0.8
			c2.8-0.4,5.6-0.6,8.4-0.8s5.6-0.2,8.4-0.2s5.6,0.1,8.4,0.2S399.2,232.7,402,233.1z"></path><path class="st0" d="M332.7,233.1c-6.4,0.4-12.8,0.7-19.2,0.8c-6.4,0.2-12.8,0.2-19.2,0.2s-12.8-0.1-19.2-0.2s-12.8-0.4-19.2-0.8
			c6.4-0.4,12.8-0.6,19.2-0.8c6.4-0.2,12.8-0.2,19.2-0.2s12.8,0.1,19.2,0.2S326.2,232.8,332.7,233.1z"></path><path class="st0" d="M321.3,264c-1.2,0.5-2.4,0.8-3.7,1c-1.3,0.2-2.5,0.4-3.8,0.5c-2.5,0.2-5.1,0.4-7.7,0.5
			c-5.1,0.2-10.2,0.2-15.3,0.1s-10.2-0.3-15.3-0.7s-10.2-0.8-15.2-1.4c5.1-0.2,10.2-0.2,15.3-0.1s10.2,0.1,15.3,0.2l15.3,0.3
			c2.5,0,5.1,0.1,7.6,0.1c1.3,0,2.5,0,3.8-0.1C318.8,264.4,320,264.3,321.3,264z"></path></g><path class="st2" d="M184.1,61.7c1.9-0.2,3.7-0.3,5.6-0.2c1.8,0,3.7,0.1,5.5,0.3s3.6,0.4,5.5,0.8c1.8,0.3,3.6,0.7,5.4,1.3
		c-1.8,0.2-3.7,0.3-5.6,0.2c-1.9,0-3.7-0.1-5.5-0.3s-3.7-0.4-5.5-0.8C187.6,62.7,185.8,62.2,184.1,61.7z" fill="#469F78"></path><path class="st2" d="M192.2,33.2c2,1.4,3.8,2.9,5.6,4.5c1.8,1.6,3.5,3.2,5.2,4.9s3.4,3.4,4.9,5.2c1.6,1.8,3.1,3.7,4.5,5.6
		c-2-1.4-3.8-2.9-5.6-4.5c-1.8-1.6-3.5-3.2-5.2-4.9s-3.4-3.4-4.9-5.2C195.1,37.1,193.6,35.2,192.2,33.2z" fill="#469F78"></path><path class="st2" d="M224.3,43.2c-0.8-0.8-1.5-1.7-2.1-2.7c-0.6-0.9-1.1-1.9-1.6-2.9c-0.5-1-0.8-2-1.2-3.1
		c-0.3-1.1-0.6-2.2-0.6-3.3c0.8,0.8,1.5,1.7,2.1,2.7c0.6,0.9,1.1,1.9,1.6,2.9c0.5,1,0.8,2,1.2,3.1C223.9,41,224.2,42.1,224.3,43.2z" fill="#469F78"></path></g><g id="plant"><path class="st3" d="M417.7,374.1c0,0,7.1-6.9,20.1-4.4s27,4.1,28.2-7.8s-22.3-8.3-30.8-5.5S418.1,370.6,417.7,374.1z"></path><path class="st3" d="M407.8,395.2c0,0,1.2-8.3-6.6-15.5s-19.8-7.1-24.1-1.7s1.6,10.6,9.1,12.1S401.5,382.2,407.8,395.2z"></path><path class="st3" d="M406.7,427.4c3.2-7.4,10.2-12.4,18.1-13.2c13.9-1.7,12.4,10.9,2.2,11.3S412,423,406.7,427.4z"></path><path class="st4" d="M421.4,427.8c0,0-24.1-0.2-25.1,0s3.1,23.1,3.9,23.6s15.5,0,15.5,0C418.3,443.7,420.3,435.8,421.4,427.8z"></path><path class="st3" d="M406.7,414.1c0,0-2.2-7.7-9.6-8.9s-6.5,7.3-1.2,7.6S403.9,411.1,406.7,414.1z"></path><path class="st4" d="M405.7,444.2c0-9.3,0.1-18.6,0.5-27.9c0.2-4.6,0.4-9.3,0.8-13.9c0.2-2.3,0.4-4.6,0.7-7
		c0.1-1.1,0.3-2.3,0.5-3.5c0.2-1.2,0.4-2.3,0.8-3.4c1.4-4.5,3.6-8.7,6.5-12.4c2.9-3.7,6.3-6.9,10.3-9.5c3.9-2.6,8.3-4.3,12.9-5.2
		c4.6-0.8,9.3-0.7,13.8,0.3c-4.5-1-9.2-1-13.8-0.1c-4.5,1-8.8,2.8-12.6,5.4c-3.8,2.6-7.2,5.8-9.9,9.5c-2.8,3.6-4.9,7.8-6.1,12.2
		c-0.3,1.1-0.5,2.2-0.7,3.4c-0.2,1.1-0.3,2.3-0.4,3.4c-0.3,2.3-0.4,4.6-0.6,6.9c-0.3,4.6-0.4,9.2-0.5,13.9c-0.2,9.2-0.2,18.5,0,27.8
		L405.7,444.2z"></path><path class="st4" d="M408.1,397.1c-0.3-2.4-1.2-4.7-2.7-6.7c-1.5-1.9-3.3-3.5-5.3-4.7l-0.8-0.5c-0.3-0.1-0.5-0.3-0.8-0.4L397,384
		c-1.1-0.5-2.2-1-3.4-1.4s-2.3-0.9-3.5-1.2s-2.4-0.8-3.6-1.2c1.3,0,2.5,0.1,3.8,0.2s2.5,0.5,3.8,0.7c0.6,0.1,1.2,0.3,1.8,0.6
		c0.6,0.2,1.2,0.4,1.8,0.6l1.8,0.8c0.3,0.1,0.6,0.3,0.9,0.4l0.8,0.5c0.5,0.4,1.1,0.7,1.6,1.1s1,0.8,1.5,1.3l1.3,1.5
		c0.4,0.5,0.8,1.1,1.1,1.6C408.2,391.8,408.6,394.5,408.1,397.1z"></path><path class="st4" d="M406.7,429.4c-0.1-1.9,0.5-3.7,1.6-5.2c1.1-1.5,2.6-2.8,4.3-3.5c1.7-0.8,3.5-1.2,5.4-1.3c0.9,0,1.8,0,2.7,0.1
		c0.9,0.1,1.8,0.3,2.6,0.5c-0.9,0.2-1.8,0.3-2.6,0.5s-1.7,0.3-2.5,0.5c-1.6,0.4-3.2,0.9-4.7,1.6c-1.5,0.7-2.8,1.6-4,2.7
		C408.3,426.4,407.3,427.8,406.7,429.4z"></path><path class="st4" d="M406.7,415c-0.2-0.5-0.5-0.9-0.8-1.3c-0.3-0.4-0.6-0.7-1-1c-0.7-0.6-1.5-1.1-2.3-1.5c-0.4-0.2-0.8-0.4-1.2-0.6
		s-0.9-0.4-1.3-0.6s-0.9-0.4-1.4-0.6c-0.5-0.2-1-0.5-1.4-0.8c0.5-0.1,1.1-0.2,1.6-0.2c0.5,0,1.1,0,1.6,0.1c0.5,0.1,1.1,0.2,1.6,0.4
		c0.5,0.2,1,0.4,1.5,0.6c1,0.5,1.9,1.3,2.5,2.2C406.8,412.7,407,413.9,406.7,415z"></path></g><g id="character"><path class="st4" d="M301.9,250.9c0,0-17,18-32,28.3S222.4,304,222.4,304l1.5-20.9L301.9,250.9z"></path><path class="st5" d="M153.4,259.1c0,0,51.9-7.1,71.4-17.9s40.7-39.9,49.7-39.8s42.8,23,35.3,39.8s-43.6,27.1-64.2,42.5
		s-66.1,3.2-66.1,3.2s44.3,89.1,7.5,93.7c-16.5,2.1-33.6-44.9-33.6-44.9L153.4,259.1z"></path><polygon class="st0" points="179.5,346.1 212.5,453.2 83.5,453.2 107.4,370.6 	"></polygon><g><defs><polygon id="SVGID_1_" points="179.5,346.1 212.5,453.2 83.5,453.2 107.4,370.6 			"></polygon></defs><clipPath id="SVGID_2_-xKeqf4iRcm"><use xlink:href="#SVGID_1_" style="overflow: visible;"></use></clipPath><g class="st6"><polygon class="st7" points="110.7,348.2 110.1,368.6 109.4,388.9 107.9,429.6 106.1,470.3 105.2,490.6 104.1,510.9 104.7,490.6 
				105.4,470.2 106.9,429.5 108.7,388.9 109.6,368.5 			"></polygon><polygon class="st7" points="123.9,348.5 123.9,368.8 123.8,389.1 123.3,429.7 122.7,470.3 122.3,490.6 121.8,510.9 121.8,490.6 
				121.9,470.3 122.3,429.7 123,389.1 123.4,368.8 			"></polygon><polygon class="st7" points="138.3,348.5 138.6,368.8 138.7,389.1 138.8,429.7 138.7,470.3 138.6,490.6 138.3,510.9 138.1,490.6 
				137.9,470.3 137.8,429.7 137.9,389.1 138.1,368.8 			"></polygon><polygon class="st7" points="152.4,348.5 152.9,368.8 153.2,389.1 153.7,429.7 154,470.3 154,490.6 154,510.9 153.5,490.6 
				153.2,470.3 152.7,429.7 152.4,389.1 152.4,368.8 			"></polygon><polygon class="st7" points="164.3,348.5 165.3,368.8 166.3,389.1 168.1,429.7 169.6,470.3 170.3,490.6 170.9,510.9 169.8,490.6 
				168.8,470.3 167.1,429.7 165.5,389.1 164.9,368.8 			"></polygon><polygon class="st7" points="177,348.6 178.3,368.8 179.4,389.1 181.6,429.7 183.5,470.3 184.4,490.6 185.2,510.9 183.9,490.7 
				182.8,470.4 180.6,429.8 178.7,389.2 177.8,368.9 			"></polygon><polygon class="st7" points="194.3,510.9 192.9,490.7 191.6,470.4 189.2,429.8 187.1,389.2 186.1,368.9 185.2,348.6 186.6,368.8 
				187.8,389.1 190.2,429.7 192.4,470.3 193.4,490.6 			"></polygon><polygon class="st7" points="195.5,348.6 196.6,368.9 197.5,389.1 199.3,429.7 200.8,470.3 201.5,490.6 202.1,510.9 201,490.7 
				200.1,470.4 198.3,429.8 196.8,389.2 196.1,368.9 			"></polygon><polygon class="st7" points="89.8,420.6 110.2,421 130.5,421.5 171.2,422.6 211.9,424 232.2,424.8 252.5,425.6 232.2,425.2 
				211.8,424.8 171.1,423.6 130.5,422.2 110.1,421.5 			"></polygon><polygon class="st7" points="90.1,410.5 110.4,410.4 130.7,410.5 171.3,410.8 211.9,411.3 232.2,411.6 252.5,412.1 232.2,412.1 
				211.9,412.1 171.3,411.8 130.7,411.3 110.4,410.9 			"></polygon><polygon class="st7" points="90.1,399.5 110.4,399.2 130.7,399.1 171.3,399 211.9,399.1 232.2,399.2 252.5,399.5 232.2,399.7 
				211.9,399.8 171.3,400 130.7,399.8 110.4,399.7 			"></polygon><polygon class="st7" points="90.1,388.7 110.4,388.3 130.7,388 171.3,387.6 211.9,387.4 232.2,387.4 252.5,387.5 232.2,387.9 
				211.9,388.2 171.3,388.6 130.7,388.7 110.4,388.8 			"></polygon><polygon class="st7" points="90.1,379.6 110.4,378.7 130.7,377.9 171.3,376.6 211.9,375.4 232.2,374.9 252.5,374.6 232.2,375.4 
				211.9,376.2 171.3,377.6 130.7,378.7 110.4,379.2 			"></polygon><polygon class="st7" points="90.2,369.8 110.4,368.8 130.8,367.9 171.3,366.2 211.9,364.8 232.2,364.1 252.6,363.6 232.3,364.6 
				212,365.5 171.4,367.2 130.8,368.7 110.5,369.3 			"></polygon><polygon class="st7" points="252.6,356.7 232.3,357.8 212,358.8 171.4,360.6 130.8,362.2 110.5,363 90.2,363.6 110.4,362.5 
				130.8,361.5 171.3,359.6 211.9,358 232.2,357.3 			"></polygon><polygon class="st7" points="90.2,355.7 110.5,354.8 130.8,354.1 171.3,352.7 211.9,351.5 232.2,351 252.6,350.7 232.3,351.5 
				212,352.3 171.4,353.7 130.8,354.8 110.5,355.3 			"></polygon><polygon class="st7" points="74.3,496.9 96.9,497.3 119.5,497.8 164.7,498.9 209.9,500.3 232.5,501.1 255.1,502 232.5,501.6 
				209.9,501.1 164.6,499.9 119.4,498.6 96.9,497.8 			"></polygon><polygon class="st7" points="74.6,486.8 97.2,486.8 119.7,486.8 164.9,487.1 210,487.6 232.5,488 255.1,488.4 232.5,488.5 
				209.9,488.4 164.8,488.1 119.7,487.6 97.2,487.3 			"></polygon><polygon class="st7" points="74.6,475.8 97.2,475.6 119.7,475.4 164.8,475.3 210,475.4 232.5,475.6 255.1,475.8 232.5,476 
				210,476.2 164.8,476.3 119.7,476.2 97.2,476 			"></polygon><polygon class="st7" points="74.5,465 97.1,464.6 119.7,464.3 164.8,463.9 209.9,463.7 232.5,463.7 255.1,463.8 232.5,464.2 
				209.9,464.5 164.8,464.9 119.7,465.1 97.1,465.1 			"></polygon><polygon class="st7" points="74.6,455.9 97.2,455.1 119.7,454.3 164.8,452.9 209.9,451.8 232.5,451.3 255.1,450.9 232.5,451.8 
				210,452.5 164.9,453.9 119.7,455.1 97.2,455.5 			"></polygon><polygon class="st7" points="74.7,446.2 97.2,445.2 119.8,444.2 164.9,442.6 210,441.1 232.5,440.5 255.1,439.9 232.6,441 
				210,441.9 164.9,443.6 119.8,445 97.2,445.6 			"></polygon><polygon class="st7" points="255.1,433 232.6,434.1 210,435.1 164.9,437 119.8,438.6 97.2,439.3 74.7,439.9 97.2,438.8 
				119.8,437.8 164.9,436 210,434.3 232.5,433.6 			"></polygon><polygon class="st7" points="74.7,432 97.2,431.2 119.8,430.4 164.9,429 210,427.9 232.6,427.4 255.1,427 232.6,427.9 210,428.6 
				164.9,430 119.8,431.2 97.2,431.7 			"></polygon></g></g><path class="st4" d="M58.4,445c0,0-11.6,13.1-17.9,22s-8.2,12.9-8.6,10.6s2.2-12.6,2.2-12.6s-3.8,7.2-6.8,10.2
		c-3.8,3.8-7,3.4-1.1-9.2s24.1-29.9,24.1-29.9L58.4,445z"></path><path class="st3" d="M40.4,424c0,0-4.2,15.2-11.1,25.7S12.9,476,16.9,477.6s24.9-27.3,31.8-31.1s7.1-1.6,7.1,0.8
		s-1.6,23.1,3.4,20.4s6.9-36.6,5.5-42.9S40.4,424,40.4,424z"></path><path class="st5" d="M138,255.6c0,0-28,3.1-30.7,18.1s3.2,34.5-26.4,68.5s-52.1,59.8-52.1,74.1s34.2,27.1,56.8,24.3
		s35.5-37.1,36.7-53.7s9.5-40.6,9.5-40.6L138,255.6z"></path><path class="st7" d="M184,360.6c-28.6,25.4-59.5,12.5-59.5,12.5l7.4-111.9l21.6-2.1c0,0,30.9,40.4,29.6,52.4s-8.1,7.5-9,11.5
		S184,360.6,184,360.6z"></path><path class="st4" d="M131.2,175.7c0,0-14,4-21.7,9.7c-7.5,5.6-1.8,12.4-4.7,22.2s1.2,16.3,9.9,20.9s17.8,6.2,26.5-4.5
		s0.8-33.8,7.2-38.8s4.5-15.7-0.8-16.6S141.8,167.4,131.2,175.7z"></path><path class="st3" d="M152.1,277.2c1.3,0.9,3,0.5,3.8-0.7c0.5-0.7,0.6-1.5,0.4-2.3c-2.9-10.8-7.6-30.3-4.5-35.6s16.9-27.3,16.9-27.3
		s11-3.8,10.8-6.1s-13.4-9.3-19.8-13.9s-17.7-9-17.7-9c0.9,0.9,2.9,10-0.2,18.5c-1.9,5.1-9.2,10.8-9.2,10.8s-1.3-12.4-8.3-5.4
		s7.3,13.4,6.8,15.5c-1,4.5,1.3,34.1,0.8,39.7C131.8,262.2,145.8,272.9,152.1,277.2z"></path><path class="st1" d="M142.9,203.5c0,0,8.6-8.2,15.1-2.6C158,201,149,209.3,142.9,203.5z"></path><path class="st4" d="M142.4,203.7c0.8-1.3,1.9-2.3,3.1-3.2c1.2-0.9,2.6-1.6,4.1-2c1.5-0.5,3.1-0.5,4.7-0.2c1.5,0.3,2.9,1.3,3.7,2.6
		c-1.2-0.7-2.6-1-4-1.1c-1.3,0-2.6,0.1-3.9,0.5C147.5,201.3,144.9,202.4,142.4,203.7z"></path><path class="st4" d="M151.8,199.1c0,0-2.3,2,0.8,5.4c0,0,5.3-2.4,5.4-3.5C158,201,153.9,198,151.8,199.1z"></path><path class="st4" d="M144.5,207.6c-0.6-0.2-0.9-0.8-0.7-1.3c0-0.1,0-0.1,0.1-0.2c0.1-0.2,0.3-0.4,0.6-0.4c0.3-0.1,0.7-0.1,1,0.1
		c0.1,0.3,0.2,0.6,0.3,0.9c0,0.1,0,0.3-0.1,0.4c-0.1,0.1-0.2,0.2-0.3,0.2C145,207.3,144.8,207.4,144.5,207.6z"></path><path class="st4" d="M147.7,207.7c-0.3-0.1-0.6-0.4-0.7-0.7c-0.1-0.2-0.1-0.5-0.1-0.8c0.1-0.3,0.3-0.5,0.5-0.6c0.3-0.2,0.7-0.2,1,0
		c0.1,0.3,0.2,0.6,0.3,0.8c0.1,0.1,0.1,0.3,0.1,0.4c-0.1,0.1-0.2,0.3-0.3,0.4C148.2,207.4,147.9,207.6,147.7,207.7z"></path><path class="st8" d="M152.2,217.6c0,0,1.4-2.2,3.6-1.2s-0.6,6.7-4.1,6.3S152.2,217.6,152.2,217.6z"></path><path class="st4" d="M151.4,214.5c0.4,0.8,0.8,1.5,1.3,2.2c0.4,0.6,0.9,1.1,1.5,1.6c0.6,0.4,1.2,0.8,1.9,1.1
		c0.4,0.2,0.8,0.3,1.1,0.5c0.4,0.1,0.9,0.3,1.3,0.5c-0.9,0.4-1.8,0.6-2.8,0.5c-1-0.1-2-0.5-2.8-1.1c-0.8-0.6-1.4-1.5-1.7-2.5
		C150.9,216.4,151,215.4,151.4,214.5z"></path><path class="st2" d="M107.4,191c-1.4,0.6-2.6,1.4-3.7,2.5c-1,0.9-1.3,2.3-0.8,3.5l0.2,0.4c0.1,0.1,0.2,0.3,0.2,0.4
		c0.2,0.3,0.3,0.6,0.6,0.9c0.4,0.6,0.9,1.3,1.3,1.9c1,1.4,1.5,3,1.7,4.7c0,0.9-0.2,1.9-0.7,2.7c-0.4,0.7-0.9,1.4-1.5,1.9
		c-0.4,0.3-0.5,0.8-0.5,1.2c0.2,0.6,0.5,1.2,0.9,1.6c0.5,0.6,1,1.4,1.3,2.1c0.2,0.5,0.2,1,0,1.5l-0.1,0.4l-0.2,0.3
		c-0.1,0.2-0.3,0.4-0.4,0.5c-1,1.2-2.3,2.1-3.7,2.8c1.1-1,2.1-2.1,2.9-3.4c0.4-0.4,0.5-1,0.3-1.5c-0.3-0.6-0.8-1.1-1.3-1.6
		c-0.6-0.6-1.1-1.4-1.4-2.2c-0.1-0.3-0.1-0.5-0.1-0.8c0-0.3,0.1-0.6,0.1-0.8c0.1-0.2,0.2-0.5,0.3-0.7l0.4-0.6c1-1.1,1.8-2.2,1.7-3.3
		c-0.2-1.3-0.6-2.6-1.4-3.8c-0.3-0.6-0.7-1.3-1.1-1.9c-0.2-0.3-0.4-0.7-0.6-1.1c-0.1-0.2-0.2-0.4-0.3-0.6l-0.2-0.6
		c-0.1-0.4-0.2-0.9-0.2-1.3c0-0.2,0.1-0.4,0.1-0.7c0-0.2,0.1-0.4,0.2-0.6c0.3-0.8,0.9-1.5,1.6-2C104.3,191.8,105.8,191.2,107.4,191z
		"></path><path class="st4" d="M171.5,416.6c-0.8,2.9-1.7,5.8-2.7,8.6s-2.1,5.6-3.2,8.4s-2.4,5.5-3.6,8.2s-2.6,5.4-4.1,8
		c0.8-2.9,1.7-5.8,2.7-8.6s2.1-5.6,3.2-8.4s2.3-5.5,3.6-8.2S169.9,419.2,171.5,416.6z"></path><path class="st4" d="M143.4,196.6c0.3-0.6,0.7-1.2,1.2-1.7c0.5-0.5,1-0.8,1.6-1.1c0.6-0.3,1.3-0.5,2-0.6c0.8-0.1,1.5,0.1,2.1,0.6
		c-0.6,0.3-1.1,0.6-1.6,0.9c-0.5,0.3-1,0.6-1.6,0.9c-0.6,0.3-1.1,0.5-1.7,0.7C144.8,196.4,144.1,196.6,143.4,196.6z"></path><path class="st4" d="M276.4,201.6c0,0-5.1,0.2,7.4,15.9s25.6,24.3,27.1,17.7S296,202.9,276.4,201.6z"></path><path class="st3" d="M297.9,232.1c0,0,4.3-4,11.6-11.8c13.7-14.6,11.8-9.2,19-17.9c4.1-4.9-0.4-8.1-0.4-8.1
		c2.5-4.7-3.9-8.4-3.9-8.4s2.8-2.8-1.8-6.4s-19.1,4.4-19.1,4.4s-7.2-24.7-13.2-20.9c-3.1,2,3.1,17.7,0,24.5
		c-2.1,4.7-2.4,7.6-4.4,12.1l-6.7,11.3C279,210.9,286.4,225.8,297.9,232.1z"></path><path class="st4" d="M311.4,186.2c-1.6,2.4-3.4,4.7-5.1,6.9c-0.3,0.4-0.5,0.9-0.5,1.4c0,0.4,0.3,0.7,0.7,0.8
		c1.2,0.2,2.4,0.1,3.5-0.4c1.3-0.5,2.5-1.1,3.7-1.8c1.2-0.7,2.4-1.5,3.6-2.3c2.3-1.6,4.6-3.4,6.9-5.1c-1.8,2.3-3.8,4.4-6,6.3
		c-2.2,2-4.8,3.6-7.5,4.7c-0.7,0.3-1.5,0.5-2.3,0.6c-0.9,0.1-1.8,0-2.6-0.3c-0.5-0.2-0.9-0.6-1.2-1c-0.3-0.4-0.5-1-0.5-1.5
		c0-0.9,0.4-1.8,1-2.5C307.1,190.1,309.2,188.1,311.4,186.2z"></path><path class="st4" d="M310.2,197.6c-0.4,0.4-0.8,0.9-1.1,1.4c-0.3,0.4-0.3,0.9-0.1,1.4c0.1,0.2,0.2,0.4,0.4,0.6
		c0.1,0.1,0.2,0.1,0.3,0.2c0.1,0.1,0.2,0.1,0.3,0.1c0.5,0.2,1,0.3,1.5,0.3c2.3,0.1,4.5-0.2,6.6-0.9c2.2-0.7,4.2-1.8,6-3.2
		c1.9-1.5,3.5-3.1,5-5c-0.8,2.3-2.2,4.5-4,6.2c-1.8,1.8-4,3.1-6.4,3.9c-2.4,0.8-5,1-7.5,0.6c-0.7-0.1-1.3-0.4-1.9-0.7
		c-0.7-0.4-1.1-1-1.3-1.7c-0.1-0.4-0.1-0.7,0-1.1c0.1-0.3,0.3-0.6,0.5-0.9C309,198.1,309.6,197.8,310.2,197.6z"></path><path class="st4" d="M314.6,204.1c-0.3,0.5-0.5,1-0.7,1.5c-0.1,0.5-0.1,1,0.2,1.1c0.4,0.2,0.8,0.2,1.2,0.2c0.5,0,1-0.1,1.5-0.2
		c2.1-0.5,4.2-1,6.2-1.7c1-0.3,2-0.7,2.9-1.2c0.9-0.4,1.7-1,2.4-1.7c0.7-0.7,1.1-1.6,1.3-2.5c0.1-1,0-2.1-0.4-3.1
		c0.8,0.8,1.3,1.9,1.5,3.1c0,0.6,0,1.2-0.2,1.8c-0.2,0.6-0.5,1.2-0.9,1.7c-1.6,1.8-3.6,3.1-5.9,3.7c-2.1,0.7-4.4,1.1-6.6,1.3
		c-0.6,0.1-1.2,0.1-1.8,0c-0.7,0-1.3-0.3-1.8-0.8c-0.3-0.3-0.4-0.7-0.3-1.1c0-0.3,0.1-0.6,0.3-0.9
		C313.7,204.9,314.1,204.5,314.6,204.1z"></path><path class="st4" d="M303.2,185.9c1.2,1.9,2,4.1,2.3,6.3c0.4,2.2,0.6,4.5,0.4,6.8c-0.2,2.3-0.6,4.5-1.3,6.6
		c-0.3,1.1-0.7,2.1-1.2,3.1c-0.5,1-1,2-1.6,2.9c0.2-1.1,0.5-2.2,0.7-3.2s0.5-2.1,0.6-3.2c0.1-0.5,0.2-1.1,0.3-1.6l0.2-1.6
		c0.2-1.1,0.2-2.1,0.3-3.2c0.1-2.1,0.1-4.3,0-6.4C303.8,190.2,303.6,188,303.2,185.9z"></path><polygon class="st4" points="131.9,261.2 152.1,277.2 131.4,268.1 	"></polygon><path class="st4" d="M97.5,201.1c0,0-48.8,34.3-38.6,56.3s41.4-17.3,43-54.7C101.9,202.7,100.1,199.2,97.5,201.1z"></path></g><g id="bubble"><circle class="st1" cx="65.1" cy="119.5" r="6.8"></circle><circle class="st1" cx="368.3" cy="406.5" r="7.4"></circle><circle class="st1" cx="161.9" cy="136.8" r="9.8"></circle><circle class="st1" cx="285.1" cy="403.7" r="5.4"></circle><circle class="st1" cx="476.6" cy="197.3" r="7.4"></circle><circle class="st1" cx="171.5" cy="31" r="9.8"></circle></g><g id="check-mark"><g id="check-mark-2"><path class="st2" d="M373.5,278.8c0,0-13.1-18.1-15.4-18.5s17.3,31.9,17.3,31.9s44.7-51.3,43.5-54.3S373.5,278.8,373.5,278.8z"></path><path class="st2" d="M392.2,255.1c0,0-11.6-9.3-29.5-6s-23.9,32.9-7.7,43.3s41.8,8.3,43.3-2.6c0,0,2,14.1-22.9,14.2
			s-45.3-27.6-29.8-46.8S388.5,248.9,392.2,255.1z"></path></g><path class="st3" d="M411.6,269.4c0.3-1.3,0.8-2.7,1.4-3.9c0.6-1.2,1.2-2.5,1.9-3.6c0.7-1.2,1.4-2.3,2.2-3.4
		c0.8-1.1,1.7-2.2,2.7-3.1c-0.3,1.3-0.8,2.7-1.4,3.9c-0.6,1.2-1.2,2.5-1.9,3.6c-0.7,1.2-1.4,2.3-2.2,3.4
		C413.5,267.4,412.6,268.4,411.6,269.4z"></path><path class="st3" d="M415.7,275.2c0.6-0.4,1.3-0.6,2.1-0.8c0.7-0.1,1.4-0.2,2-0.2c0.7,0,1.4,0.1,2.1,0.2c0.7,0.2,1.4,0.4,2,0.8
		c-0.6,0.4-1.3,0.6-2,0.8c-0.7,0.1-1.4,0.2-2.1,0.2c-0.7,0-1.4-0.1-2-0.2C417,275.8,416.3,275.6,415.7,275.2z"></path></g></svg>