<svg transform="scale(1)" version="1.1" id="O3nDjC5mWk" xmlns="http://www.w3.org/2000/svg" xmlns:xlink="http://www.w3.org/1999/xlink" x="0px" y="0px" viewBox="0 0 500 500" xml:space="preserve" class="pbimage_pbimage__wrapper__image__0LEis false"><title>Checklist 2</title><style type="text/css"> .st0{fill:#469F78;} .st1{fill:#000001;} .st2{fill:#FFFFFF;} .st3{fill:#F2EBEB;} .st4{fill:#F3CB5C;} .st5{fill:#EA8383;} .st6{fill:#87CCDB;} .st7{fill:#A04040;} .st8{clip-path:url(#SVGID_2_-O3nDjC5mWk);}
 .st7{fill:#A04040;}
 .st6{fill:#87CCDB;}
 .st5{fill:#EA8383;}
 .st4{fill:#F3CB5C;}
 .st3{fill:#F2EBEB;}
 .st2{fill:#FFFFFF;}
 .st1{fill:#000001;}
 .st0{fill:#469F78;}</style><g id="form"><path class="st0" d="M136.6,87.5c0,0-14.5,349.8-6.5,351.4s262.5,5.6,265.8-4.9s-10.2-349-12-351.4S140.7,83.5,136.6,87.5z" fill="#469F78"></path><polygon class="st1" points="162.3,109.7 143.9,433.3 381.4,426.5 354.5,114.1 	" fill="#000001"></polygon><path class="st2" d="M148.7,101.3c0,0-6.5,320.7-4,320.7s238.6,2.4,239.2-3.2s-9-315.9-9.8-317.5S148.7,101.3,148.7,101.3z" fill="#FFFFFF"></path><path class="st3" d="M226.7,167c1.3,0,2.5,0.1,3.8,0.3c1.2,0.3,2.4,0.8,3.5,1.4c1.1,0.6,2.2,1.1,3.4,1.4c2.4,0.5,4.9,0.5,7.2-0.2
		c1.2-0.4,2.3-0.9,3.3-1.6c1.1-0.7,2.3-1.3,3.6-1.6c1.3-0.4,2.6-0.5,3.9-0.6c1.3,0,2.7,0.1,4,0.4c1.3,0.4,2.5,0.9,3.6,1.6
		c1,0.6,2.1,1.1,3.3,1.4c1.1,0.3,2.3,0.4,3.5,0.4c1.2,0,2.3-0.2,3.5-0.5c1.1-0.3,2.2-0.8,3.2-1.4c1.1-0.7,2.4-1.2,3.6-1.6
		c1.3-0.3,2.7-0.5,4-0.5c1.4,0,2.7,0.2,4,0.5c1.3,0.4,2.5,0.9,3.6,1.6c1,0.6,2.1,1.1,3.2,1.4c2.3,0.6,4.7,0.6,7,0
		c1.1-0.3,2.2-0.8,3.3-1.4c1.1-0.7,2.4-1.2,3.6-1.6c1.3-0.3,2.7-0.5,4-0.4c2.7,0,5.3,0.8,7.5,2.2c1,0.7,2.1,1.2,3.2,1.6
		c2.4,0.6,4.8,0.7,7.2,0.2c1.2-0.3,2.3-0.8,3.4-1.4c1.1-0.6,2.3-1.1,3.5-1.4c1.2-0.3,2.5-0.4,3.8-0.3c-1.3,0-2.5,0.3-3.7,0.6
		c-1.2,0.4-2.3,0.9-3.4,1.6c-1.1,0.7-2.2,1.3-3.5,1.7c-2.5,0.7-5.2,0.8-7.7,0.2c-1.3-0.4-2.5-0.9-3.6-1.5c-1-0.6-2.2-1.1-3.3-1.4
		c-1.2-0.3-2.3-0.4-3.5-0.4c-1.2,0-2.4,0.2-3.5,0.5c-1.1,0.4-2.2,0.9-3.2,1.5c-1.1,0.7-2.4,1.2-3.6,1.6c-1.3,0.4-2.6,0.5-4,0.5
		c-1.3,0-2.7-0.1-4-0.5c-1.3-0.4-2.5-0.9-3.7-1.6c-1-0.6-2.1-1.1-3.2-1.4c-2.3-0.6-4.7-0.6-6.9,0c-1.1,0.3-2.2,0.8-3.2,1.4
		c-1.1,0.7-2.4,1.2-3.6,1.6c-1.3,0.3-2.7,0.5-4,0.5c-1.4,0-2.7-0.2-4-0.5c-1.3-0.4-2.5-0.9-3.6-1.6c-1-0.6-2.1-1.1-3.2-1.5
		c-2.3-0.6-4.7-0.7-7.1-0.1c-1.2,0.3-2.3,0.8-3.3,1.4c-1.1,0.7-2.3,1.2-3.6,1.5c-2.5,0.6-5.2,0.5-7.7-0.2c-1.2-0.4-2.4-1-3.5-1.6
		c-1-0.7-2.2-1.2-3.4-1.6C229.2,167.3,228,167.1,226.7,167z" fill="#F2EBEB"></path><path class="st3" d="M186.5,164.3c0,0-1.6,28.2,0,28s28.7,0,28.7,0s3.2-26.9,0-28S186.5,164.3,186.5,164.3z" fill="#F2EBEB"></path><path class="st0" d="M193.3,178.1c1.6,1.1,3.1,2.3,4.6,3.6h-1.1c1-1,2.1-2,3.1-3c1.1-1,2.2-1.9,3.3-2.9s2.3-1.8,3.5-2.7
		c1.2-0.9,2.4-1.7,3.7-2.4c-0.9,1.2-1.8,2.3-2.9,3.4c-1,1.1-2,2.1-3.1,3.1s-2.1,2-3.3,2.9s-2.3,1.9-3.4,2.7l-0.6,0.5l-0.4-0.5
		C195.5,181.3,194.3,179.7,193.3,178.1z" fill="#469F78"></path><path class="st3" d="M226.7,178.7c1.3-0.1,2.5,0.1,3.8,0.3c1.2,0.3,2.4,0.8,3.5,1.4c1.1,0.6,2.2,1.1,3.4,1.4
		c2.4,0.5,4.9,0.5,7.2-0.2c1.2-0.4,2.3-0.9,3.3-1.6c3.4-2.1,7.6-2.7,11.4-1.8c1.3,0.4,2.5,0.9,3.6,1.6c2,1.3,4.4,1.9,6.8,1.8
		c1.2,0,2.3-0.2,3.5-0.5c1.1-0.3,2.2-0.8,3.2-1.4c3.5-2.1,7.7-2.7,11.7-1.6c1.3,0.4,2.5,0.9,3.6,1.6c1,0.6,2.1,1.1,3.2,1.4
		c1.1,0.3,2.3,0.4,3.5,0.4c1.2,0,2.3-0.1,3.5-0.4c1.1-0.3,2.2-0.8,3.3-1.4c2.3-1.4,4.9-2.1,7.6-2c2.7,0,5.3,0.8,7.5,2.2
		c1,0.7,2.1,1.2,3.3,1.6c1.2,0.3,2.4,0.5,3.6,0.5c1.2,0,2.4-0.1,3.6-0.4c1.2-0.3,2.3-0.8,3.4-1.4c1.1-0.6,2.3-1.1,3.5-1.4
		c1.2-0.3,2.5-0.4,3.8-0.3c-1.3,0-2.5,0.3-3.7,0.6c-1.2,0.4-2.3,0.9-3.4,1.6c-1.1,0.7-2.2,1.3-3.5,1.7c-2.5,0.7-5.2,0.8-7.7,0.2
		c-1.3-0.4-2.5-0.9-3.6-1.5c-1-0.6-2.2-1.1-3.3-1.4c-1.2-0.3-2.3-0.4-3.5-0.4c-1.2,0-2.4,0.2-3.5,0.5c-1.1,0.4-2.2,0.9-3.2,1.5
		c-1.1,0.7-2.4,1.2-3.6,1.6c-1.3,0.4-2.6,0.5-4,0.6c-1.3,0-2.7-0.1-4-0.5c-1.3-0.4-2.5-0.9-3.7-1.6c-1-0.6-2.1-1.1-3.2-1.4
		c-2.3-0.6-4.7-0.6-6.9,0c-1.1,0.3-2.2,0.8-3.2,1.4c-1.1,0.7-2.4,1.2-3.6,1.6c-2.6,0.7-5.4,0.7-8-0.1c-1.3-0.4-2.5-0.9-3.6-1.6
		c-1-0.6-2.1-1.1-3.2-1.5c-1.1-0.3-2.3-0.5-3.5-0.5c-1.2,0-2.4,0.1-3.5,0.4c-1.2,0.3-2.3,0.8-3.3,1.4c-1.1,0.6-2.3,1.2-3.6,1.5
		c-2.5,0.6-5.2,0.5-7.7-0.2c-1.2-0.4-2.4-1-3.5-1.7c-1-0.7-2.2-1.2-3.4-1.6C229.2,178.9,228,178.7,226.7,178.7z" fill="#F2EBEB"></path><path class="st3" d="M226.7,189c0.8-0.1,1.6,0.1,2.3,0.4c0.7,0.4,1.3,0.9,1.9,1.4c0.5,0.5,1.1,1,1.8,1.3c1.3,0.6,2.8,0.5,4-0.2
		c0.6-0.4,1.1-0.9,1.6-1.4c0.5-0.6,1.2-1.2,1.9-1.6c1.6-0.9,3.6-0.9,5.2-0.1c0.7,0.4,1.4,1,2,1.6c0.5,0.5,1,0.9,1.6,1.3
		c0.6,0.3,1.2,0.4,1.8,0.4c0.6,0,1.2-0.2,1.8-0.4c0.6-0.4,1.1-0.8,1.6-1.3c0.6-0.6,1.3-1.2,2-1.6c1.7-0.9,3.7-0.9,5.4,0
		c0.7,0.4,1.4,1,2,1.6c0.5,0.5,1,0.9,1.6,1.3c0.6,0.3,1.2,0.4,1.8,0.4c0.6,0,1.2-0.1,1.8-0.4c0.6-0.3,1.1-0.8,1.6-1.3
		c0.6-0.6,1.3-1.2,2-1.6c0.8-0.4,1.7-0.6,2.6-0.6c0.9,0,1.8,0.3,2.6,0.7c0.7,0.4,1.4,1,1.9,1.6c0.5,0.5,1,1,1.6,1.4
		c0.6,0.3,1.3,0.5,2,0.6c0.7,0,1.4-0.1,2.1-0.4c0.7-0.4,1.3-0.8,1.8-1.3c0.6-0.6,1.2-1,1.9-1.4c0.7-0.3,1.5-0.5,2.3-0.4
		c-0.8,0-1.5,0.3-2.2,0.7c-0.6,0.4-1.2,0.9-1.7,1.5c-0.5,0.6-1.1,1.2-1.8,1.6c-1.5,0.9-3.4,0.9-4.9,0.2c-0.7-0.4-1.4-0.9-2-1.5
		c-0.5-0.5-1.1-0.9-1.7-1.3c-0.6-0.3-1.2-0.4-1.9-0.4c-1.4,0.1-2.6,0.8-3.4,1.8c-0.6,0.6-1.3,1.2-2,1.6c-0.8,0.4-1.7,0.7-2.7,0.7
		c-0.9,0-1.9-0.2-2.7-0.6c-0.7-0.4-1.4-1-2-1.6c-0.5-0.5-1-0.9-1.6-1.3c-0.5-0.3-1.1-0.4-1.7-0.4c-0.6,0-1.2,0.1-1.8,0.4
		c-0.6,0.3-1.1,0.8-1.6,1.3c-0.6,0.6-1.3,1.2-2,1.6c-0.8,0.4-1.8,0.7-2.7,0.6c-0.9,0-1.8-0.2-2.7-0.7c-0.7-0.4-1.4-1-2-1.6
		c-0.8-1.1-2.1-1.8-3.4-1.9c-0.7,0-1.3,0.1-1.9,0.4c-0.6,0.3-1.2,0.8-1.7,1.3c-0.6,0.6-1.3,1.1-2,1.5c-1.6,0.8-3.4,0.7-4.9-0.2
		c-0.7-0.4-1.3-1-1.8-1.6c-0.5-0.6-1-1.1-1.7-1.5C228.3,189.3,227.5,189,226.7,189z" fill="#F2EBEB"></path><path class="st3" d="M227.1,217.2c1.3-0.1,2.5,0,3.8,0.3c1.2,0.3,2.4,0.8,3.5,1.4c1.1,0.6,2.2,1.1,3.4,1.4c2.4,0.5,4.9,0.5,7.2-0.2
		c1.2-0.4,2.3-0.9,3.3-1.6c2.2-1.4,4.8-2.2,7.5-2.2c1.3,0,2.7,0.1,3.9,0.4c1.3,0.4,2.5,0.9,3.6,1.6c1,0.6,2.1,1.1,3.3,1.4
		c1.1,0.3,2.3,0.4,3.5,0.4c1.2,0,2.3-0.2,3.5-0.5c1.1-0.3,2.2-0.8,3.2-1.4c1.1-0.7,2.4-1.2,3.6-1.6c2.6-0.7,5.4-0.7,8,0
		c1.3,0.4,2.5,0.9,3.6,1.6c2,1.3,4.3,1.9,6.7,1.9c1.2,0,2.3-0.1,3.5-0.4c1.1-0.3,2.2-0.8,3.3-1.4c1.1-0.7,2.4-1.2,3.6-1.6
		c1.3-0.3,2.7-0.5,4-0.4c1.3,0,2.7,0.2,3.9,0.6c1.3,0.4,2.5,0.9,3.6,1.6c1,0.6,2.1,1.2,3.3,1.5c2.4,0.7,4.8,0.7,7.2,0.2
		c1.2-0.3,2.3-0.8,3.4-1.4c1.1-0.6,2.3-1.1,3.5-1.4c1.2-0.3,2.5-0.4,3.8-0.3c-1.3,0-2.5,0.2-3.7,0.6c-1.2,0.4-2.3,0.9-3.4,1.6
		c-2.2,1.4-4.7,2.2-7.3,2.3c-1.3,0-2.6-0.1-3.9-0.4c-1.3-0.4-2.5-0.9-3.6-1.5c-1-0.6-2.2-1.1-3.3-1.4c-2.3-0.5-4.7-0.5-7,0.1
		c-1.1,0.4-2.2,0.9-3.2,1.5c-1.1,0.7-2.4,1.2-3.6,1.6c-1.3,0.4-2.6,0.5-4,0.5c-1.3,0-2.7-0.1-4-0.5c-1.3-0.4-2.5-0.9-3.6-1.6
		c-1-0.6-2.1-1.1-3.2-1.4c-1.1-0.3-2.3-0.4-3.5-0.4c-1.2,0-2.3,0.1-3.5,0.4c-1.1,0.3-2.2,0.8-3.2,1.4c-1.2,0.7-2.4,1.2-3.7,1.6
		c-1.3,0.3-2.7,0.5-4,0.5c-1.4,0-2.7-0.2-4-0.5c-1.3-0.4-2.5-0.9-3.6-1.6c-1-0.6-2.1-1.1-3.2-1.5c-1.1-0.3-2.3-0.5-3.5-0.5
		c-1.2,0-2.4,0.1-3.5,0.4c-1.2,0.3-2.3,0.8-3.3,1.4c-1.1,0.7-2.3,1.2-3.6,1.5c-2.5,0.6-5.2,0.5-7.7-0.2c-1.2-0.4-2.4-1-3.5-1.6
		c-1-0.7-2.2-1.2-3.4-1.6C229.6,217.4,228.4,217.2,227.1,217.2z" fill="#F2EBEB"></path><path class="st3" d="M186.9,214.5c0,0-1.6,28.2,0,28s28.7,0,28.7,0s3.2-26.8,0-28S186.9,214.5,186.9,214.5z" fill="#F2EBEB"></path><path class="st0" d="M193.7,228.3c1.6,1.1,3.1,2.3,4.5,3.6h-1.1c1-1.1,2.1-2.1,3.1-3.1s2.2-1.9,3.3-2.9s2.3-1.8,3.5-2.7
		c1.2-0.9,2.4-1.7,3.7-2.4c-0.9,1.2-1.8,2.3-2.9,3.4c-1,1.1-2,2.1-3.1,3.1s-2.1,2-3.3,2.9s-2.3,1.9-3.4,2.7l-0.6,0.5l-0.4-0.5
		C195.9,231.5,194.7,229.9,193.7,228.3z" fill="#469F78"></path><path class="st3" d="M227.1,228.9c1.3-0.1,2.5,0.1,3.8,0.3c1.2,0.3,2.4,0.8,3.5,1.4c1.1,0.6,2.2,1.1,3.4,1.4
		c2.4,0.5,4.9,0.5,7.2-0.2c1.2-0.4,2.3-0.9,3.3-1.6c2.2-1.5,4.8-2.2,7.5-2.2c1.3,0,2.7,0.1,3.9,0.4c1.3,0.4,2.5,0.9,3.6,1.6
		c1,0.6,2.1,1.1,3.3,1.4c1.1,0.3,2.3,0.4,3.5,0.4c1.2,0,2.3-0.2,3.5-0.5c1.1-0.4,2.2-0.8,3.2-1.4c2.3-1.4,4.9-2.2,7.6-2.1
		c1.4,0,2.7,0.2,4,0.5c1.3,0.4,2.5,0.9,3.6,1.6c1,0.6,2.1,1.1,3.2,1.4c1.1,0.3,2.3,0.5,3.5,0.5c1.2,0,2.3-0.1,3.5-0.4
		c1.1-0.3,2.2-0.8,3.3-1.4c1.1-0.7,2.4-1.2,3.6-1.6c1.3-0.3,2.7-0.5,4-0.4c1.3,0,2.6,0.2,3.9,0.6c1.3,0.4,2.4,1,3.6,1.6
		c1,0.7,2.1,1.2,3.3,1.6c1.2,0.3,2.4,0.5,3.6,0.5c1.2,0,2.4-0.1,3.6-0.4c1.2-0.3,2.3-0.8,3.4-1.4c1.1-0.6,2.3-1.1,3.5-1.4
		c1.2-0.3,2.5-0.4,3.8-0.3c-1.3,0-2.5,0.3-3.7,0.6c-1.2,0.4-2.3,0.9-3.4,1.6c-1.1,0.7-2.2,1.3-3.5,1.7c-2.5,0.7-5.2,0.8-7.7,0.2
		c-1.3-0.4-2.5-0.9-3.6-1.5c-1-0.6-2.2-1.1-3.3-1.4c-2.3-0.5-4.7-0.5-7,0.1c-1.1,0.4-2.2,0.9-3.2,1.5c-1.1,0.7-2.4,1.2-3.6,1.6
		c-2.6,0.7-5.4,0.7-8,0.1c-1.3-0.4-2.5-0.9-3.6-1.6c-1-0.6-2.1-1.1-3.3-1.4c-2.3-0.6-4.7-0.6-6.9,0c-1.1,0.3-2.2,0.8-3.2,1.4
		c-1.1,0.7-2.4,1.2-3.7,1.6c-2.6,0.7-5.4,0.7-8-0.1c-1.3-0.4-2.5-0.9-3.6-1.6c-1-0.6-2.1-1.1-3.2-1.5c-1.1-0.3-2.3-0.5-3.5-0.5
		c-1.2,0-2.4,0.1-3.5,0.4c-1.2,0.3-2.3,0.8-3.3,1.4c-1.1,0.7-2.3,1.2-3.6,1.5c-2.5,0.6-5.2,0.5-7.7-0.2c-1.2-0.4-2.4-1-3.5-1.7
		c-1-0.7-2.2-1.2-3.4-1.6C229.6,229.1,228.4,228.9,227.1,228.9z" fill="#F2EBEB"></path><path class="st3" d="M227.1,239.2c0.8-0.1,1.6,0.1,2.3,0.4c0.7,0.4,1.3,0.8,1.9,1.4c0.5,0.5,1.1,1,1.8,1.3c1.3,0.6,2.8,0.5,4-0.2
		c0.6-0.4,1.1-0.9,1.6-1.4c0.5-0.6,1.2-1.2,1.9-1.6c0.8-0.4,1.7-0.7,2.6-0.7c0.9,0,1.8,0.2,2.6,0.6c0.7,0.4,1.4,1,2,1.6
		c0.5,0.5,1,0.9,1.6,1.3c1.1,0.5,2.5,0.5,3.6-0.1c0.6-0.4,1.1-0.8,1.6-1.3c0.6-0.6,1.3-1.2,2-1.6c1.7-0.9,3.7-0.9,5.4,0
		c0.7,0.4,1.4,1,2,1.6c0.5,0.5,1,0.9,1.6,1.3c0.5,0.3,1.2,0.4,1.8,0.4c0.6,0,1.2-0.1,1.8-0.4c0.6-0.3,1.1-0.8,1.6-1.3
		c0.6-0.6,1.3-1.2,2-1.6c0.8-0.4,1.7-0.6,2.6-0.6c0.9,0,1.8,0.3,2.6,0.7c0.7,0.4,1.4,1,1.9,1.6c0.5,0.6,1,1,1.6,1.4
		c0.6,0.4,1.3,0.5,2,0.6c0.7,0,1.4-0.1,2-0.4c0.7-0.4,1.3-0.8,1.8-1.3c0.6-0.6,1.2-1,1.9-1.4c0.7-0.3,1.5-0.5,2.3-0.4
		c-0.8,0-1.5,0.3-2.2,0.7c-0.6,0.4-1.2,0.9-1.7,1.5c-0.5,0.6-1.1,1.2-1.8,1.6c-1.5,0.9-3.4,0.9-4.9,0.2c-0.7-0.4-1.4-0.9-2-1.5
		c-0.5-0.5-1.1-0.9-1.7-1.3c-0.6-0.3-1.2-0.4-1.9-0.4c-1.4,0.1-2.6,0.7-3.4,1.8c-0.6,0.6-1.3,1.2-2,1.6c-0.8,0.4-1.7,0.7-2.7,0.7
		c-0.9,0-1.9-0.2-2.7-0.6c-0.7-0.4-1.4-1-2-1.6c-0.5-0.5-1-0.9-1.6-1.3c-0.5-0.3-1.1-0.4-1.8-0.4c-0.6,0-1.2,0.1-1.8,0.4
		c-0.6,0.3-1.1,0.8-1.6,1.3c-0.6,0.6-1.3,1.2-2,1.6c-0.8,0.4-1.8,0.7-2.7,0.6c-0.9,0-1.8-0.2-2.7-0.7c-0.7-0.4-1.4-1-2-1.6
		c-0.8-1.1-2.1-1.8-3.4-1.9c-0.7,0-1.3,0.1-1.9,0.4c-0.6,0.3-1.2,0.8-1.7,1.3c-0.6,0.6-1.3,1.1-2,1.5c-0.8,0.4-1.6,0.6-2.5,0.5
		c-0.8,0-1.7-0.3-2.4-0.7c-0.7-0.4-1.3-1-1.8-1.6c-0.5-0.6-1.1-1.1-1.7-1.5C228.6,239.4,227.9,239.2,227.1,239.2z" fill="#F2EBEB"></path><path class="st3" d="M227.1,268.9c1.3-0.1,2.5,0.1,3.8,0.3c1.2,0.3,2.4,0.8,3.5,1.4c1.1,0.6,2.2,1.1,3.4,1.4
		c2.4,0.5,4.9,0.5,7.2-0.2c1.2-0.4,2.3-0.9,3.3-1.5c2.2-1.5,4.8-2.2,7.5-2.2c1.3,0,2.7,0.1,3.9,0.5c1.3,0.4,2.5,0.9,3.6,1.6
		c1,0.6,2.1,1.1,3.3,1.4c1.1,0.3,2.3,0.4,3.5,0.4c1.2,0,2.3-0.2,3.5-0.5c1.1-0.3,2.2-0.8,3.2-1.5c1.1-0.7,2.4-1.2,3.6-1.6
		c2.6-0.7,5.4-0.7,8,0c1.3,0.4,2.5,0.9,3.6,1.6c1,0.6,2.1,1.1,3.2,1.5c1.1,0.3,2.3,0.4,3.5,0.5c1.2,0,2.3-0.1,3.5-0.4
		c1.1-0.3,2.2-0.8,3.3-1.4c1.1-0.7,2.4-1.2,3.6-1.6c1.3-0.3,2.7-0.5,4-0.4c2.7,0,5.3,0.8,7.5,2.2c1,0.7,2.1,1.2,3.3,1.5
		c1.2,0.3,2.4,0.5,3.6,0.5c1.2,0,2.4-0.1,3.6-0.4c1.2-0.3,2.3-0.8,3.4-1.4c1.1-0.6,2.3-1.1,3.5-1.4c1.2-0.3,2.5-0.4,3.8-0.3
		c-1.3,0-2.5,0.3-3.7,0.6c-1.2,0.4-2.3,0.9-3.4,1.6c-1.1,0.7-2.2,1.3-3.5,1.7c-2.5,0.7-5.2,0.8-7.7,0.2c-1.3-0.4-2.5-0.9-3.6-1.5
		c-1-0.6-2.2-1.1-3.3-1.4c-2.3-0.5-4.7-0.5-7,0.1c-1.1,0.4-2.2,0.9-3.2,1.5c-1.1,0.7-2.4,1.2-3.6,1.6c-1.3,0.4-2.6,0.5-4,0.5
		c-1.3,0-2.7-0.2-4-0.5c-1.3-0.4-2.5-0.9-3.6-1.6c-1-0.6-2.1-1.1-3.2-1.4c-2.3-0.6-4.7-0.6-6.9,0c-1.1,0.3-2.2,0.8-3.2,1.4
		c-1.2,0.7-2.4,1.2-3.7,1.6c-1.3,0.3-2.7,0.5-4,0.5c-1.4,0-2.7-0.2-4-0.5c-1.3-0.4-2.5-0.9-3.6-1.6c-1-0.6-2.1-1.1-3.2-1.5
		c-1.1-0.3-2.3-0.5-3.5-0.5c-1.2,0-2.4,0.1-3.5,0.4c-1.2,0.3-2.3,0.8-3.3,1.4c-1.1,0.6-2.3,1.2-3.6,1.5c-2.5,0.6-5.2,0.5-7.7-0.2
		c-1.2-0.4-2.4-1-3.5-1.7c-1-0.7-2.2-1.2-3.4-1.6C229.6,269.1,228.4,268.9,227.1,268.9z" fill="#F2EBEB"></path><path class="st3" d="M186.9,266.2c0,0-1.6,28.2,0,28s28.7,0,28.7,0s3.2-26.8,0-28S186.9,266.2,186.9,266.2z" fill="#F2EBEB"></path><path class="st3" d="M227.1,280.6c1.3-0.1,2.5,0.1,3.8,0.3c1.2,0.3,2.4,0.8,3.5,1.4c1.1,0.6,2.2,1.1,3.4,1.4
		c1.2,0.3,2.4,0.4,3.6,0.4c1.2,0,2.4-0.2,3.6-0.5c1.2-0.4,2.3-0.9,3.3-1.5c1.1-0.7,2.3-1.3,3.6-1.6c1.3-0.4,2.6-0.5,3.9-0.6
		c1.3,0,2.7,0.1,3.9,0.5c1.3,0.4,2.5,0.9,3.6,1.6c1,0.6,2.1,1.1,3.3,1.4c1.1,0.3,2.3,0.4,3.5,0.4c1.2,0,2.3-0.2,3.5-0.5
		c1.1-0.3,2.2-0.8,3.2-1.5c1.1-0.7,2.4-1.2,3.6-1.6c1.3-0.4,2.6-0.5,4-0.5c1.4,0,2.7,0.2,4,0.5c1.3,0.4,2.5,0.9,3.6,1.6
		c2,1.3,4.3,1.9,6.7,1.9c1.2,0,2.3-0.1,3.5-0.4c1.1-0.3,2.2-0.8,3.3-1.4c1.1-0.7,2.4-1.2,3.6-1.6c1.3-0.3,2.7-0.5,4-0.4
		c2.7,0,5.3,0.8,7.5,2.2c1,0.6,2.1,1.2,3.3,1.5c2.4,0.7,4.8,0.7,7.2,0.2c1.2-0.3,2.3-0.8,3.4-1.4c1.1-0.6,2.3-1.1,3.5-1.4
		c1.2-0.3,2.5-0.4,3.8-0.3c-1.3,0-2.5,0.2-3.7,0.6c-1.2,0.4-2.3,0.9-3.4,1.6c-2.2,1.4-4.7,2.2-7.3,2.3c-1.3,0-2.6-0.1-3.9-0.4
		c-1.3-0.4-2.5-0.9-3.6-1.5c-1-0.6-2.2-1.1-3.3-1.4c-2.3-0.5-4.7-0.5-7,0.1c-1.1,0.4-2.2,0.9-3.2,1.5c-1.1,0.7-2.4,1.2-3.6,1.6
		c-1.3,0.4-2.6,0.5-4,0.5c-1.3,0-2.7-0.1-4-0.5c-1.3-0.4-2.5-0.9-3.6-1.6c-1-0.6-2.1-1.1-3.3-1.4c-1.1-0.3-2.3-0.4-3.5-0.4
		c-1.2,0-2.3,0.1-3.5,0.4c-1.1,0.3-2.2,0.8-3.2,1.4c-1.2,0.7-2.4,1.2-3.7,1.6c-1.3,0.3-2.7,0.5-4,0.5c-1.4,0-2.7-0.2-4-0.5
		c-1.3-0.4-2.5-0.9-3.6-1.6c-1-0.6-2.1-1.1-3.2-1.5c-1.1-0.3-2.3-0.5-3.5-0.5c-1.2,0-2.4,0.1-3.5,0.4c-1.2,0.3-2.3,0.8-3.3,1.4
		c-1.1,0.6-2.4,1.1-3.6,1.5c-1.3,0.3-2.6,0.4-3.9,0.4c-1.3,0-2.6-0.2-3.8-0.6c-1.2-0.4-2.4-1-3.5-1.7c-1-0.7-2.2-1.2-3.4-1.6
		C229.6,280.8,228.4,280.6,227.1,280.6z" fill="#F2EBEB"></path><path class="st3" d="M227.1,290.9c0.8-0.1,1.6,0.1,2.3,0.4c0.7,0.4,1.3,0.8,1.9,1.4c0.5,0.5,1.1,1,1.8,1.3c1.3,0.6,2.8,0.5,4-0.2
		c0.6-0.4,1.1-0.9,1.6-1.4c0.5-0.6,1.2-1.2,1.9-1.6c1.6-0.9,3.6-0.9,5.2-0.1c0.7,0.4,1.4,1,2,1.6c0.5,0.5,1,0.9,1.6,1.3
		c0.6,0.3,1.2,0.4,1.8,0.4c0.6,0,1.2-0.2,1.8-0.4c0.6-0.4,1.1-0.8,1.6-1.3c0.6-0.6,1.3-1.2,2-1.6c0.8-0.4,1.8-0.7,2.7-0.7
		c0.9,0,1.9,0.2,2.7,0.7c0.7,0.4,1.4,1,2,1.6c0.5,0.5,1,0.9,1.6,1.3c0.5,0.3,1.2,0.4,1.8,0.4c0.6,0,1.2-0.1,1.8-0.4
		c0.6-0.3,1.1-0.8,1.6-1.3c0.6-0.6,1.3-1.1,2-1.6c1.6-0.8,3.6-0.8,5.2,0.1c0.7,0.4,1.4,1,1.9,1.6c0.5,0.5,1,1,1.6,1.4
		c0.6,0.4,1.3,0.5,2,0.6c0.7,0,1.4-0.1,2-0.4c0.7-0.3,1.3-0.8,1.8-1.3c0.6-0.6,1.2-1,1.9-1.4c0.7-0.3,1.5-0.5,2.3-0.4
		c-0.8,0-1.5,0.3-2.2,0.7c-0.6,0.4-1.2,0.9-1.7,1.5c-0.5,0.6-1.1,1.2-1.8,1.6c-1.5,0.9-3.4,0.9-4.9,0.2c-0.7-0.4-1.4-0.9-2-1.5
		c-0.5-0.5-1.1-0.9-1.7-1.3c-0.6-0.3-1.2-0.4-1.9-0.4c-1.4,0.1-2.6,0.8-3.4,1.8c-0.6,0.6-1.3,1.2-2,1.6c-1.7,0.9-3.7,0.9-5.4,0.1
		c-0.7-0.4-1.4-1-2-1.6c-0.5-0.5-1-0.9-1.6-1.3c-0.5-0.3-1.1-0.4-1.8-0.4c-0.6,0-1.2,0.1-1.8,0.4c-0.6,0.3-1.1,0.8-1.6,1.3
		c-0.6,0.6-1.3,1.2-2,1.6c-1.7,0.9-3.7,0.9-5.4,0c-0.7-0.4-1.4-1-2-1.6c-0.8-1.1-2.1-1.8-3.4-1.8c-0.7,0-1.3,0.1-1.9,0.4
		c-0.6,0.3-1.2,0.8-1.7,1.3c-0.6,0.6-1.3,1.1-2,1.5c-0.8,0.4-1.6,0.6-2.5,0.5c-0.8,0-1.7-0.3-2.4-0.7c-0.7-0.5-1.2-1-1.7-1.7
		c-0.5-0.6-1.1-1.1-1.7-1.5C228.6,291.1,227.9,290.9,227.1,290.9z" fill="#F2EBEB"></path><path class="st4" d="M280.9,61.7c-1.8-6.3-9.7-13.6-16.8-13.6c-6.1,0-8.4,8.1-9.2,13.8c-18.8,0.3-34.3,0.8-35.5,0.8
		c-3.2,0,4.5,46.5,4.5,46.5c4.5,1.3,87.9-0.6,91.1,0s8.9-36.3,8.9-43.3C323.8,62.8,303.5,61.9,280.9,61.7z M271.1,69.2
		c-0.8,4.2-4,6.3-8.5,2.1s1.4-8.4,1.4-8.4C270.9,63.4,271.9,65,271.1,69.2L271.1,69.2z" fill="#F3CB5C"></path><path class="st5" d="M207.5,36.1c1.1,1.2,2,2.5,2.9,3.9c0.9,1.3,1.7,2.7,2.4,4.1c0.7,1.4,1.4,2.9,2,4.3c0.6,1.5,1.1,3,1.5,4.6
		c-1.1-1.2-2-2.5-2.9-3.9c-0.9-1.3-1.7-2.7-2.4-4.1s-1.4-2.9-2-4.3C208.4,39.2,207.9,37.7,207.5,36.1z" fill="#EA8383"></path><path class="st5" d="M186.1,50.9c2.1,0.5,4.2,1.1,6.2,1.9c2,0.7,4,1.5,6,2.4s3.9,1.8,5.8,2.8c1.9,1,3.8,2.1,5.6,3.3
		c-2.1-0.5-4.2-1.1-6.2-1.9c-2-0.7-4-1.5-6-2.4s-3.9-1.8-5.8-2.8C189.8,53.2,187.9,52.1,186.1,50.9z" fill="#EA8383"></path><path class="st5" d="M204.6,73.7c-1,0.3-2,0.5-3,0.6c-1,0.1-2,0.1-3,0c-1-0.1-2-0.2-2.9-0.4c-1-0.2-2-0.5-2.9-1c1-0.3,2-0.5,3-0.6
		c2-0.1,4,0,5.9,0.4C202.7,72.9,203.7,73.2,204.6,73.7z" fill="#EA8383"></path></g><g id="hand-1"><path class="st5" d="M48.6,338.6c0,0,44-83.3,52.9-99.6s30.4-24.5,30.4-24.5l-1.7,54.3L113,353.3L48.6,338.6z"></path><path class="st5" d="M124.6,296.1c0,0,14.3-22.9,12.4-50.6c0,0,31.2-19.9,30.8-26.5s-31.1,5.8-46.6,12.2c-13.9,5.8-29,44.6-29,44.6
		L124.6,296.1z"></path><path class="st1" d="M156.6,218.4l-18.3,6.9c-3,1.2-6.1,2.3-9,3.6s-6,2.5-8.8,4.1c-1.4,0.7-2.6,1.5-3.8,2.5c-1,1.2-1.9,2.5-2.6,3.8
		c-1.6,2.8-3,5.7-4.4,8.6c-2.8,5.9-5.4,11.8-8.1,17.8c1.9-6.2,4.1-12.4,6.6-18.4c1.3-3,2.6-6,4.2-8.9c0.8-1.5,1.7-2.9,2.8-4.2
		c1.3-1.2,2.7-2.2,4.2-3c5.9-2.9,12-5.4,18.2-7.4C144,221.7,150.3,219.9,156.6,218.4z"></path><path class="st6" d="M10.7,391.7l37.8-65.8l89,27.3c0,0-2.6,27.5-24.6,38.5s1.9,38.4-11.4,45.7s-11.4,26.5-11.4,26.5L10.7,391.7z"></path></g><g id="hand-2"><path class="st7" d="M447.1,353.2c0,0-32.5-113.3-36.2-124s-43.4-20.6-50.6-19.9s-57.2,13.7-56,16.9s23.5,0.9,23.5,0.9
		s-19.7,17-15.4,19.2c8.9,4.7,16.7-3.6,34.2-7.9c0,0-22.2,17.7-18,20c10.8,6,17.4-7.9,27.3-14C371.9,234.5,447.1,353.2,447.1,353.2z
		"></path><path class="st4" d="M469,274.8l-181.6-48.6c0,0-1.2-12,4.5-12s182.3,47,182.3,47L469,274.8z"></path><g><defs><path id="SVGID_1_" d="M469,274.8l-181.6-48.6c0,0-1.2-12,4.5-12s182.3,47,182.3,47L469,274.8z"></path></defs><clipPath id="SVGID_2_-O3nDjC5mWk"><use xlink:href="#SVGID_1_" style="overflow: visible;"></use></clipPath><g class="st8"><polygon class="st2" points="282.7,144.6 282.3,164.6 281.9,184.5 280.9,224.4 279.6,264.3 278.9,284.2 278.1,304.1 278.4,284.2 
				278.8,264.2 279.9,224.4 281.1,184.5 281.9,164.6 			"></polygon><polygon class="st2" points="291.9,145 291.9,164.9 291.9,184.8 291.6,224.5 291.2,264.3 290.9,284.2 290.4,304.1 290.4,284.2 
				290.4,264.3 290.6,224.5 291.1,184.7 291.4,164.8 			"></polygon><polygon class="st2" points="301.9,145 302.2,164.9 302.3,184.7 302.4,224.5 302.3,264.3 302.2,284.2 301.9,304.1 301.7,284.2 
				301.5,264.3 301.4,224.5 301.5,184.7 301.7,164.9 			"></polygon><polygon class="st2" points="311.8,144.9 312.1,164.8 312.4,184.7 312.8,224.5 312.9,264.3 312.9,284.2 312.8,304.1 312.5,284.2 
				312.2,264.3 311.8,224.5 311.6,184.7 311.6,164.8 			"></polygon><polygon class="st2" points="320,145 320.8,164.8 321.5,184.7 322.8,224.5 323.9,264.3 324.3,284.2 324.6,304.1 323.8,284.2 
				323.1,264.3 321.8,224.6 320.8,184.8 320.4,164.9 			"></polygon><polygon class="st2" points="328.9,145 329.9,164.9 330.7,184.8 332.2,224.6 333.6,264.4 334.1,284.3 334.6,304.2 333.6,284.3 
				332.8,264.4 331.2,224.6 329.9,184.8 329.4,164.9 			"></polygon><polygon class="st2" points="340.9,304.2 339.9,284.3 339,264.4 337.3,224.6 335.8,184.8 335.1,164.9 334.6,145 335.6,164.9 
				336.6,184.8 338.3,224.6 339.7,264.4 340.4,284.3 			"></polygon><polygon class="st2" points="341.8,145 342.6,164.9 343.3,184.8 344.6,224.6 345.6,264.4 346,284.3 346.4,304.2 345.6,284.3 
				344.9,264.4 343.6,224.6 342.5,184.8 342.1,164.9 			"></polygon><polygon class="st2" points="274.9,227.1 302,226.8 329.2,226.7 383.4,226.6 437.7,226.7 464.8,226.8 491.9,227.1 464.8,227.3 
				437.7,227.4 383.4,227.6 329.2,227.4 302,227.3 			"></polygon><polygon class="st2" points="275.2,217.3 302,217.3 328.8,217.4 382.3,217.8 435.9,218.4 462.6,218.8 489.4,219.3 462.6,219.3 
				435.9,219.2 382.3,218.8 328.8,218.2 302,217.8 			"></polygon><polygon class="st2" points="275.2,206.7 296,206.5 316.7,206.3 358.1,206.2 399.6,206.3 420.3,206.4 441,206.7 420.3,206.9 
				399.6,207.1 358.1,207.2 316.7,207.1 296,206.9 			"></polygon><polygon class="st2" points="275.2,196.3 295.9,195.9 316.6,195.6 358.1,195.2 399.6,195 420.3,195 441,195.1 420.3,195.5 
				399.6,195.8 358.1,196.2 316.6,196.4 295.9,196.4 			"></polygon><polygon class="st2" points="275.2,187.5 296,186.7 316.7,185.9 358.1,184.6 399.6,183.5 420.3,183 441,182.7 420.3,183.5 
				399.6,184.3 358.2,185.6 316.7,186.7 296,187.2 			"></polygon><polygon class="st2" points="275.3,178.1 296,177.2 316.7,176.3 358.2,174.6 399.6,173.2 420.3,172.6 441.1,172.1 420.4,173.1 
				399.6,174 358.2,175.6 316.7,177 296,177.6 			"></polygon><polygon class="st2" points="441.1,165.4 420.4,166.5 399.6,167.5 358.2,169.3 316.8,170.8 296,171.5 275.3,172.1 296,171 
				316.7,170.1 358.2,168.3 399.6,166.7 420.3,166 			"></polygon><polygon class="st2" points="275.3,164.5 296,163.7 316.7,162.9 358.2,161.6 399.6,160.5 420.3,160 441.1,159.7 420.4,160.5 
				399.6,161.3 358.2,162.6 316.7,163.7 296,164.2 			"></polygon><polygon class="st2" points="358.9,148.3 358.5,169.3 358.1,190.4 357.1,232.5 355.8,274.6 355.1,295.6 354.3,316.6 354.6,295.6 
				355,274.5 356.1,232.4 357.3,190.3 358,169.3 			"></polygon><polygon class="st2" points="368.1,148.6 368.1,169.6 368.1,190.6 367.8,232.6 367.4,274.6 367,295.6 366.6,316.6 366.6,295.6 
				366.6,274.6 366.8,232.6 367.3,190.6 367.6,169.6 			"></polygon><polygon class="st2" points="378.1,148.6 378.4,169.6 378.5,190.6 378.6,232.6 378.5,274.6 378.4,295.6 378.1,316.6 377.9,295.6 
				377.7,274.6 377.6,232.6 377.7,190.6 377.9,169.6 			"></polygon><polygon class="st2" points="388,148.5 388.3,169.5 388.6,190.5 389,232.6 389.1,274.6 389.1,295.6 389,316.6 388.6,295.6 
				388.4,274.6 388,232.6 387.8,190.5 387.9,169.5 			"></polygon><polygon class="st2" points="396.2,148.6 397,169.6 397.8,190.6 399,232.6 400,274.6 400.5,295.6 400.8,316.6 400,295.6 
				399.3,274.6 398,232.6 397,190.6 396.5,169.6 			"></polygon><polygon class="st2" points="405.1,148.6 406.1,169.6 406.9,190.6 408.5,232.6 409.8,274.6 410.3,295.7 410.8,316.7 409.9,295.7 
				409,274.7 407.5,232.7 406.1,190.6 405.6,169.6 			"></polygon><polygon class="st2" points="417.1,316.7 416.1,295.7 415.2,274.7 413.5,232.7 412,190.6 411.4,169.6 410.8,148.6 411.8,169.6 
				412.8,190.6 414.5,232.6 415.9,274.6 416.6,295.7 			"></polygon><polygon class="st2" points="418,148.6 418.8,169.6 419.5,190.6 420.8,232.6 421.8,274.6 422.2,295.7 422.6,316.7 421.8,295.7 
				421,274.7 419.8,232.7 418.8,190.6 418.3,169.6 			"></polygon><polygon class="st2" points="263.8,291.5 292.6,291.8 321.4,292.2 379.1,293.1 436.7,294.2 465.6,294.9 494.4,295.6 465.5,295.3 
				436.7,295 379.1,294.1 321.4,292.9 292.6,292.3 			"></polygon><polygon class="st2" points="264.2,283.4 293,283.3 321.8,283.3 379.3,283.5 436.8,284 465.6,284.3 494.4,284.7 465.6,284.7 
				436.8,284.7 379.3,284.5 321.8,284.1 293,283.8 			"></polygon><polygon class="st2" points="264.2,274.5 293,274.2 321.8,274.1 379.3,274 436.8,274.1 465.6,274.2 494.4,274.5 465.6,274.7 
				436.8,274.9 379.3,275 321.8,274.9 293,274.7 			"></polygon><polygon class="st2" points="264.1,265.8 292.9,265.4 321.7,265.1 379.2,264.8 436.8,264.7 465.6,264.7 494.4,264.8 465.6,265.2 
				436.8,265.4 379.2,265.8 321.7,265.9 292.9,265.9 			"></polygon><polygon class="st2" points="264.2,258.4 293,257.7 321.8,257 379.3,255.9 436.8,255 465.6,254.6 494.4,254.4 465.6,255.1 
				436.9,255.8 379.3,256.9 321.8,257.8 293,258.2 			"></polygon><polygon class="st2" points="264.3,250.6 293,249.7 321.8,248.9 379.3,247.5 436.9,246.4 465.6,245.9 494.4,245.5 465.7,246.4 
				436.9,247.2 379.4,248.5 321.8,249.7 293,250.2 			"></polygon><polygon class="st2" points="494.4,239.9 465.7,240.8 436.9,241.7 379.4,243.2 321.8,244.5 293,245 264.3,245.5 293,244.6 
				321.8,243.7 379.3,242.2 436.9,240.9 465.6,240.4 			"></polygon><polygon class="st2" points="264.3,239.1 293,238.4 321.8,237.7 379.3,236.6 436.9,235.7 465.6,235.3 494.4,235.1 465.7,235.8 
				436.9,236.5 379.4,237.6 321.8,238.5 293,238.9 			"></polygon><polygon class="st2" points="430,184.8 429.6,205.8 429.2,226.9 428.1,269 426.9,311.1 426.2,332.1 425.3,353.1 425.7,332.1 
				426.1,311 427.1,268.9 428.4,226.8 429.1,205.8 			"></polygon><polygon class="st2" points="439.1,185.1 439.2,206.1 439.2,227.1 438.9,269.1 438.4,311.1 438.1,332.1 437.7,353.1 437.6,332.1 
				437.7,311.1 437.9,269.1 438.4,227.1 438.7,206.1 			"></polygon><polygon class="st2" points="449.2,185.1 449.4,206.1 449.6,227.1 449.7,269.1 449.6,311.1 449.4,332.1 449.2,353.1 448.9,332.1 
				448.8,311.1 448.7,269.1 448.8,227.1 449,206.1 			"></polygon><polygon class="st2" points="459,185 459.4,206 459.7,227 460.1,269.1 460.2,311.1 460.2,332.1 460.1,353.1 459.7,332.1 
				459.5,311.1 459.1,269.1 458.9,227 458.9,206 			"></polygon><polygon class="st2" points="467.3,185.1 468.1,206.1 468.8,227.1 470.1,269.1 471.1,311.1 471.6,332.1 471.9,353.1 471.1,332.1 
				470.4,311.1 469.1,269.1 468.1,227.1 467.6,206.1 			"></polygon><polygon class="st2" points="476.2,185.1 477.1,206.1 478,227.1 479.5,269.1 480.8,311.2 481.4,332.2 481.9,353.2 480.9,332.2 
				480.1,311.2 478.5,269.2 477.2,227.1 476.6,206.1 			"></polygon><polygon class="st2" points="488.2,353.2 487.2,332.2 486.2,311.2 484.5,269.2 483.1,227.2 482.4,206.1 481.9,185.1 482.9,206.1 
				483.8,227.1 485.5,269.1 487,311.2 487.6,332.2 			"></polygon><polygon class="st2" points="489.1,185.1 489.9,206.1 490.6,227.1 491.9,269.1 492.9,311.2 493.3,332.2 493.7,353.2 492.8,332.2 
				492.1,311.2 490.9,269.2 489.8,227.1 489.4,206.1 			"></polygon></g></g><path class="st0" d="M469,274.8c0,0-2.5-5.7,0-9.3s5.3-4.2,5.3-4.2s5.3-0.1,4.6,5.6S474.5,278,469,274.8z"></path><path class="st1" d="M474.3,267c0,0-4,0-3.2,2.4S476.6,271.6,474.3,267z"></path><polygon class="st0" points="270.3,215.5 287.4,226.2 292,214.3 	"></polygon><path class="st5" d="M468.2,353.2l-43.1,63.3c0,0-61.8-136.5-68.4-148s-43.8-42.5-37.1-44.6s14.6,1,41.7,22.1l60.2,16.1
		L468.2,353.2z"></path><path class="st6" d="M419.7,463.9c0,0-29.7-10-20.3-30s-12.5-18.1-12.9-39s-12.1-44.7-12.1-44.7l87.4-46.1l27.6,108.9L419.7,463.9z
		"></path><path class="st6" d="M283.1,231.9c-2.7,0.1-5.4-0.3-8-1.2c-2.6-0.9-5-2.3-7.1-4c-0.5-0.4-1-0.9-1.5-1.4c-0.5-0.5-1-1-1.4-1.5
		c-0.9-1.1-1.6-2.2-2.2-3.4c-0.3-0.6-0.6-1.2-0.9-1.8l-0.7-1.9c-0.2-0.7-0.4-1.3-0.5-2c-0.1-0.7-0.2-1.3-0.3-2
		c0.3,0.6,0.6,1.2,0.9,1.8c0.2,0.6,0.5,1.2,0.9,1.8c0.6,1.1,1.3,2.3,2,3.3c1.4,2.1,3.1,4,5.1,5.6c2,1.6,4.1,3,6.4,4.1
		C278.1,230.3,280.6,231.3,283.1,231.9z"></path><path class="st6" d="M268.4,230.8c-1.3-0.2-2.6-0.6-3.7-1.3c-1.1-0.7-2.2-1.5-3.1-2.4c-0.9-1-1.7-2.1-2.2-3.3
		c-0.6-1.2-0.9-2.5-0.9-3.8c0.8,1.1,1.5,2.1,2.3,3s1.5,1.8,2.4,2.7s1.7,1.7,2.5,2.5L268.4,230.8z"></path><path class="st7" d="M360.3,209.3c0,0-53.1,5.9-53.2,8.4s19.9,6.1,34.9,5.6S360.3,209.3,360.3,209.3z"></path></g><g id="bubble"><circle class="st3" cx="123.4" cy="71.2" r="6.8"></circle><circle class="st3" cx="65.2" cy="164.2" r="7.4"></circle><circle class="st3" cx="432.4" cy="191.2" r="9.8"></circle><circle class="st3" cx="427" cy="86.1" r="5.4"></circle></g></svg>