<svg transform="scale(1)" version="1.1" id="VGt4HdjaCX" xmlns="http://www.w3.org/2000/svg" xmlns:xlink="http://www.w3.org/1999/xlink" x="0px" y="0px" viewBox="0 0 500 500" xml:space="preserve" class="pbimage_pbimage__wrapper__image__0LEis false"><title>Family</title><style type="text/css"> .st0{fill:#EA8383;} .st1{fill:#469F78;} .st2{fill:#000001;} .st3{fill:#A04040;} .st4{fill:#FFFFFF;} .st5{fill:#87CCDB;} .st6{fill:#F3CB5C;}
 .st6{fill:#F3CB5C;}
 .st5{fill:#87CCDB;}
 .st4{fill:#FFFFFF;}
 .st3{fill:#A04040;}
 .st2{fill:#000001;}
 .st1{fill:#469F78;}
 .st0{fill:#EA8383;}</style><g id="character-3"><path class="st0" d="M388.6,183l15.4,59l8.8,43.9l-73.5,2.8l11.5-33c0,0-9.2-24.7-8.5-31.1c1.2-12.8,33.4-41.3,33.4-41.3L388.6,183
		" fill="#EA8383"></path><path class="st1" d="M329.8,438.6c0,0,3.6-51.8,5.9-80.8s11.4-69.4,11.4-69.4l65.8-2.5c0,0,21.7,55.1,23.9,74.4s0,78.3,0,78.3
		L329.8,438.6z" fill="#469F78"></path><path class="st2" d="M370.2,278c0,0-5.6-10.5-4.9-12.4s14.4,8.3,14.4,8.3L370.2,278z" fill="#000001"></path><path class="st3" d="M401.8,292.7c0,0-19.2-18.3-22.8-19.2s-31.3,7.8-31.9,9.6s18.4,2.2,18.4,2.2s-11.3,5.3-18.5,10.4
		c-5.4,3.8,3,4.5,3,4.5s-1.3,2.5,2.8,1.9c0,0,0.6,3,5.8,2s16.2-2.9,16.2-2.9l16.9,13.1C391.7,314.4,399.9,307.3,401.8,292.7z" fill="#A04040"></path><path class="st2" d="M371.9,291.7c-1.7,1-3.4,1.9-5.1,2.7s-3.4,1.6-5.1,2.4s-3.4,1.5-5,2.4c-0.8,0.4-1.6,0.9-2.4,1.4
		c-0.4,0.2-0.7,0.5-1,0.9c-0.3,0.3-0.4,0.8-0.3,1.2c-0.3-0.4-0.4-1-0.2-1.5c0.2-0.5,0.5-0.9,0.8-1.3c0.6-0.8,1.4-1.4,2.2-2
		c1.6-1.1,3.2-2.1,5-2.9c1.7-0.8,3.5-1.5,5.4-2C368.1,292.4,370,291.9,371.9,291.7z" fill="#000001"></path><path class="st2" d="M372.5,286.1c-1.9,1.3-3.8,2.4-5.7,3.6s-3.9,2.2-5.8,3.3s-3.8,2.2-5.7,3.3c-1.9,1.1-3.7,2.4-5.3,3.9
		c0.2-0.5,0.5-1,0.8-1.5c0.3-0.5,0.7-0.9,1.1-1.4c0.4-0.4,0.8-0.8,1.2-1.2l1.3-1.1c1.8-1.4,3.7-2.7,5.6-3.8c2-1.1,4-2.1,6.1-3
		C368.2,287.4,370.4,286.6,372.5,286.1z" fill="#000001"></path><path class="st2" d="M373.5,280.6c-2,1.6-4.1,3.1-6.2,4.5c-2.1,1.4-4.3,2.7-6.5,4s-4.4,2.5-6.7,3.6c-2.3,1.2-4.6,2.2-7,3.1
		c2-1.6,4.1-3.1,6.2-4.5c2.1-1.4,4.3-2.7,6.5-4s4.4-2.5,6.7-3.6C368.8,282.6,371.1,281.5,373.5,280.6z" fill="#000001"></path><path class="st0" d="M385.8,181.6c0,0,15.6-16.3,30.7,2s46.3,135.5,37.8,151.9s-62.5-20.5-62.5-20.5l10-21.7l12.7,2.8
		C414.4,296.1,381.5,207.7,385.8,181.6z" fill="#EA8383"></path><path class="st2" d="M401.8,293.4c2.5,0.2,5,0.5,7.5,1c2.5,0.4,4.9,1,7.4,1.5s4.9,1.2,7.3,1.9c2.4,0.7,4.8,1.5,7.2,2.5
		c-2.5-0.2-5-0.5-7.5-1c-2.5-0.4-4.9-1-7.4-1.5s-4.9-1.2-7.3-1.9C406.5,295.1,404.1,294.3,401.8,293.4z" fill="#000001"></path><path class="st2" d="M401.7,220c1.4,6.3,2.8,12.6,4,18.9c1.2,6.3,2.3,12.6,3.4,19c1.1,6.4,2.1,12.7,3,19s1.7,12.8,2.4,19.1
		c-1.4-6.3-2.8-12.6-4-18.9c-1.2-6.3-2.3-12.6-3.4-19s-2.1-12.7-3-19.1S402.4,226.4,401.7,220z" fill="#000001"></path><path class="st2" d="M419.5,152.3c0,0,52.4,37.3,41.3,61s-44.6-18.9-46.1-59.3C414.8,154,416.7,150.2,419.5,152.3z" fill="#000001"></path><path class="st2" d="M375.4,94.6c0,0,15.7-0.6,25.6,2.8c9.6,3.3,15.1,9.9,15.8,20.5c0.8,11.1,0.6,17.9-6.8,25.6
		s-16.2,12.3-28.7,4.2s-12.1-34.4-20.4-37.4s-9.8-14.6-4.8-17.3S361.8,89.6,375.4,94.6z" fill="#000001"></path><path class="st3" d="M365.2,209.9c-2.5,1.1,5.3-16.5,5.9-19.2c2.3-10.9,4.1-25.1-0.9-29.5s-21.6-18-21.6-18s-12.6-0.2-13.1-2.7
		s10.6-14,15.6-20.9s15.2-15.2,15.2-15.2c-0.6,1.3,0.3,11.2,6.4,18.9c3.7,4.6,13,8,13,8s-2.8-13.2,6.7-8.3s-3,16.2-1.8,18.2
		c2.5,4.3-2.8,44.1-0.3,49.7C390.9,191.9,373.5,206.4,365.2,209.9z" fill="#A04040"></path><path class="st2" d="M366.2,124.7c-0.6,0.4-1.2,0.7-1.7,1.1c-0.5,0.4-1,0.8-1.5,1.2c-0.5,0.4-1,0.9-1.4,1.4c-0.4,0.5-0.9,1-1.2,1.6
		c0-0.7,0.2-1.4,0.6-2c0.4-0.6,0.8-1.2,1.4-1.7c0.5-0.5,1.2-0.8,1.8-1.1C364.8,124.9,365.5,124.8,366.2,124.7z" fill="#000001"></path><path class="st2" d="M372,130.6c-0.3,0-0.6,0-0.9,0.1c-0.1,0-0.3,0-0.4-0.1c-0.1-0.1-0.2-0.2-0.3-0.4c-0.1-0.3-0.2-0.6-0.2-0.9
		c0.2-0.3,0.5-0.4,0.9-0.5c0.3,0,0.5,0,0.7,0.2c0.2,0.2,0.4,0.4,0.5,0.7C372.4,129.9,372.3,130.3,372,130.6z" fill="#000001"></path><path class="st2" d="M369,132.2c-0.3,0-0.7,0-1-0.1c-0.2,0-0.3-0.1-0.5-0.2c-0.1-0.1-0.2-0.3-0.2-0.4c0-0.2-0.1-0.4-0.2-0.9
		c0.2-0.3,0.6-0.5,1-0.4c0.3,0,0.6,0.2,0.8,0.4c0.2,0.2,0.3,0.5,0.3,0.7C369.3,131.6,369.2,132,369,132.2z" fill="#000001"></path><path class="st0" d="M367.9,144.5c0,0-2.2-1.8-4.1-0.1s2.9,6.7,6.3,5.1S367.9,144.5,367.9,144.5z" fill="#EA8383"></path><path class="st2" d="M367.7,141.2c0.6,0.8,1,1.8,1,2.9c0,1.1-0.3,2.2-0.9,3.1c-0.6,0.9-1.5,1.6-2.5,2c-0.5,0.2-1,0.3-1.5,0.4
		c-0.5,0.1-1,0.1-1.5,0c0.4-0.3,0.7-0.6,1.1-0.9c0.3-0.3,0.7-0.6,1-0.9c0.6-0.5,1.2-1.1,1.7-1.8c0.4-0.7,0.8-1.4,1-2.1
		C367.4,143,367.6,142.1,367.7,141.2z" fill="#000001"></path><path class="st1" d="M414.9,137.4c1.3,1,2.5,2.1,3.5,3.4c0.5,0.7,0.9,1.5,1.2,2.3c0.4,1,0.2,2.2-0.5,3c-0.7,0.7-1.6,1.2-2.6,1.4
		c-0.8,0.2-1.6,0.4-2.3,0.6c-0.7,0.2-1.5,0.4-2.2,0.7c-0.6,0.2-1.1,0.5-1.6,1c-0.3,0.4-0.4,1-0.2,1.5c0.2,0.7,0.4,1.5,0.7,2.2
		c0.2,0.5,0.3,1.1,0.1,1.7c-0.2,0.7-0.7,1.2-1.3,1.5c-0.9,0.3-1.8,0.4-2.7,0.3c-0.7-0.1-1.4,0-2,0.3c-0.1,0.1-0.2,0.2-0.2,0.5
		s0.2,0.7,0.3,1.1c0.4,1.6,1,3.1,1.7,4.5c-1.1-1.2-2-2.6-2.6-4.2c-0.2-0.4-0.3-0.8-0.5-1.2c-0.1-0.3-0.1-0.6,0-0.9
		c0.1-0.3,0.3-0.6,0.5-0.8c0.4-0.3,0.9-0.5,1.4-0.6c0.4-0.1,0.9-0.1,1.3-0.2c0.7,0,1.4-0.2,2.1-0.4c0.2-0.1,0.2-0.2,0.2-0.2
		c0-0.2-0.1-0.5-0.2-0.7c-0.3-0.8-0.6-1.6-0.8-2.4c0-0.2-0.1-0.5-0.1-0.7c0-0.3,0-0.5,0-0.8c0.1-0.6,0.3-1.1,0.6-1.6
		c0.7-0.7,1.5-1.3,2.5-1.6c0.8-0.3,1.6-0.5,2.5-0.7c0.8-0.2,1.6-0.3,2.4-0.4c0.6-0.1,1.2-0.3,1.8-0.7c0.4-0.4,0.5-1,0.4-1.6
		c-0.2-0.7-0.4-1.4-0.8-2.1C416.8,140,415.9,138.7,414.9,137.4z" fill="#469F78"></path><path class="st2" d="M371.6,121.9c-1.9-0.7-3.4-1.3-5-1.7c-0.8-0.2-1.6-0.3-2.4-0.4c-0.9-0.1-1.8-0.1-2.7,0
		c0.6-0.8,1.5-1.3,2.5-1.6c1-0.3,2.1-0.3,3.1,0c1,0.3,1.9,0.7,2.7,1.3C370.5,120.1,371.2,121,371.6,121.9z" fill="#000001"></path><path class="st4" d="M339.2,374c6.2,2.3,12,5.5,17.2,9.7c2.6,2.1,5,4.4,7.2,6.9c2.2,2.6,4,5.4,5.5,8.4c1.5,3,2.5,6.2,3.2,9.5
		c0.5,3.3,0.7,6.7,0.4,10c-0.8,6.6-3,13-6.4,18.7c2.7-5.9,4.3-12.3,4.9-18.8c0.1-3.2-0.1-6.4-0.7-9.6c-0.6-3.1-1.7-6.1-3.1-9
		c-2.9-5.7-7-10.8-11.9-15C350.5,380.6,345.1,376.9,339.2,374z" fill="#FFFFFF"></path><path class="st4" d="M408,327.7c-1.4,4.7-2.5,9.4-3.4,14.1c-0.9,4.7-1.6,9.5-2.1,14.3c-0.5,4.8-0.6,9.6-0.3,14.4
		c0.2,4.8,1.1,9.5,2.5,14c1.4,4.5,3.7,8.7,6.8,12.3c3.1,3.7,6.3,7.6,8.5,12c2.3,4.4,3.6,9.2,4,14.2c0.1,4.9-0.8,10-3.4,14.1
		c1.1-2.2,1.8-4.5,2.2-6.9c0.4-2.4,0.4-4.8,0.2-7.2c-0.5-4.8-2-9.4-4.3-13.5c-2.4-4.2-5.2-8-8.5-11.5c-3.3-3.7-5.8-8.2-7.3-12.9
		c-1.5-4.7-2.3-9.6-2.5-14.6c-0.2-4.9,0-9.8,0.6-14.6C402.2,346.3,404.6,336.8,408,327.7z" fill="#FFFFFF"></path><path class="st4" d="M345.2,314.4c1,0.6,2.1,1.1,3.2,1.6l3.2,1.6c2.1,1.1,4.2,2.2,6.3,3.4c4.2,2.3,8.2,4.9,12,7.8
		c3.9,2.8,7.5,6.1,10.6,9.8c1.6,1.9,2.9,4,4,6.2c1.1,2.3,1.8,4.7,1.9,7.2c0,0.6,0,1.3,0,1.9c0,0.7-0.1,1.3-0.3,1.9
		c-0.3,1.3-1,2.5-1.9,3.5c-1,0.9-2.1,1.7-3.4,2.1c-1.2,0.4-2.5,0.6-3.7,0.7c-2.4,0.1-4.9-0.1-7.3-0.5c-2.4-0.4-4.7-1-7-1.7
		c-9.1-2.9-17.9-6.7-26.2-11.5c4.3,2,8.7,3.8,13.1,5.5c4.4,1.7,8.9,3.2,13.5,4.5c4.5,1.2,9.2,2.2,13.8,1.9c2.2-0.2,4.5-0.8,5.9-2.2
		c1.4-1.6,2-3.8,1.7-5.9c-0.2-4.5-2.5-8.7-5.4-12.3c-3-3.6-6.3-6.9-10-9.7c-3.7-2.9-7.6-5.6-11.6-8.1c-2-1.3-4-2.5-6.1-3.7
		C349.3,316.9,347.2,315.8,345.2,314.4z" fill="#FFFFFF"></path></g><g id="character-1"><path class="st5" d="M126.7,353.5c0,0-60-157.6-44.1-180.4s118.2-25.9,156.6,6.9s-7.4,173.6-7.4,173.6H126.7z"></path><path class="st1" d="M113.2,437.2c0,0-16-52.4,13.5-83.7h105.1l3.7,83.7H113.2z"></path><path class="st5" d="M82.6,173.1c0,0-28.9,54.8-39.6,117.9l58.4,7.7l32.5-62.8L82.6,173.1z"></path><path class="st3" d="M88.4,437.2c0,0-0.1-97.7,0-106.2s12.9-32.5,12.9-32.5l-55.9-7.4c0,0-7.9,23.4-7.9,39.8s14.1,106.2,14.1,106.2
		H88.4z"></path><path class="st3" d="M172.4,75.6c0,0,16.4,33.2,15.1,34s-5.6,0.3-5.6,0.3s9.2,23.6,8.7,57.5c0,0-36,2.5-54.9-9.6
		c0,0-13.9-86-7.1-89.9S172.4,75.6,172.4,75.6z"></path><path class="st2" d="M135.9,90.9c0,0,7.1,16.6,5.9,20s-13-3.6-13-3.6s-9.6-38.9-6.4-44.5s88.5,9.7,82.4,14s-32.3-1.2-32.3-1.2
		l-25.8,2.7C146.7,78.3,142.8,88,135.9,90.9z"></path><path class="st3" d="M129.5,107.7c0,0-13.7-3.4-11.9-15.3s16.3,8.5,16.3,8.5L129.5,107.7z"></path><path class="st2" d="M155.9,96.4c0.9-0.3,1.9-0.5,2.9-0.5c1,0,2,0,2.9,0.2c1,0.2,1.9,0.4,2.8,0.8c0.9,0.4,1.7,0.9,2.4,1.6
		c-0.9-0.3-1.8-0.6-2.7-0.9s-1.8-0.4-2.7-0.6C159.7,96.7,157.9,96.6,155.9,96.4z"></path><path class="st2" d="M156.8,114c0.7,1.1,1.8,2,3,2.6c0.6,0.2,1.2,0.4,1.9,0.5l1.1,0.2c0.4,0.1,0.8,0.2,1.2,0.3
		c-0.3,0.3-0.7,0.5-1.1,0.7c-0.4,0.2-0.8,0.3-1.2,0.4c-0.9,0.2-1.8,0.1-2.6-0.3c-0.9-0.4-1.6-1-2-1.9
		C156.6,115.8,156.5,114.9,156.8,114z"></path><path class="st2" d="M149.6,91.6c-0.1-1.5,0.4-3.1,1.3-4.3c0.9-1.3,2.3-2.3,3.9-2.7c1.5-0.4,3.1-0.3,4.7,0.1
		c0.7,0.2,1.4,0.5,2.1,0.8c0.6,0.4,1.3,0.8,1.9,1.2c-0.7-0.1-1.5-0.2-2.2-0.3c-0.7-0.1-1.4-0.1-2.1-0.2c-1.3-0.1-2.6,0-3.9,0.3
		c-1.2,0.3-2.3,0.9-3.2,1.8C151.1,89.3,150.3,90.4,149.6,91.6z"></path><path class="st2" d="M130.6,242.1c-3.1,7-6.2,14-9.5,21c-3.3,6.9-6.6,13.8-10,20.7s-6.9,13.7-10.4,20.5s-7.2,13.6-10.9,20.3
		c3.1-7,6.2-14,9.5-21c3.3-6.9,6.6-13.8,10-20.7s6.9-13.7,10.4-20.5S126.9,248.8,130.6,242.1z"></path></g><g id="character-2"><path class="st2" d="M226.2,436.5V391c0,0,109,49.7,104.9,48.4S226.2,436.5,226.2,436.5z"></path><path class="st3" d="M277,194.8c0,0-22,24-21.2,25s4.7,1.7,4.7,1.7s-15.6,17.5-6.1,30.9c0,0,20.3,13.6,39.2,8
		c0,0,27-56.2,22.2-61.2S277,194.8,277,194.8z"></path><path class="st2" d="M280.6,231c-0.1,0.7-0.5,1.4-1,1.9c-0.6,0.5-1.3,0.8-2,0.9c-0.7,0.1-1.5-0.1-2.2-0.3c-0.3-0.2-0.6-0.3-0.9-0.5
		c-0.3-0.2-0.5-0.4-0.8-0.7c0.4,0.1,0.7,0.1,1,0.2l1,0.2c0.6,0.1,1.2,0.1,1.8,0.1C278.8,232.6,279.9,232,280.6,231z"></path><path class="st2" d="M292.3,213.9c-2.5-1.3-4.9-2.5-7.3-3.6c-1.2-0.6-2.4-1.1-3.7-1.7s-2.5-1.1-3.8-1.8c1.4-0.1,2.8,0,4.2,0.3
		c1.4,0.3,2.7,0.7,4,1.3c1.3,0.6,2.5,1.4,3.6,2.2C290.5,211.6,291.5,212.7,292.3,213.9z"></path><path class="st2" d="M284.1,216.5c-1.5-0.2-3.1-0.1-4.6,0.1c-0.7,0.2-1.4,0.4-2,0.8c-0.6,0.4-1.2,0.9-1.7,1.5
		c0.2-0.8,0.6-1.6,1.3-2.2c0.7-0.6,1.4-1,2.3-1.1c0.8-0.2,1.7-0.2,2.5,0C282.6,215.8,283.4,216.1,284.1,216.5z"></path><path class="st2" d="M272.4,199.8l17.6,7.1l7.7-5.8v11.4l9.4,5.9l-11.8,38.1c0,0,8.9,1.1,11.8,0s30.2-42.7,29.1-55.7
		s-48.7-20-55.6-16.2s-8.2,16.5-8.2,16.5"></path><path class="st3" d="M300,235.1c0,0,12.4,0.5,13.8-10s-15.8,3.1-15.8,3.1L300,235.1z"></path><path class="st6" d="M257.8,277.8c0,0-2-20.6,1.8-20.7s44.9-3.6,46.3,1.4s-8,27.1-8,27.1L257.8,277.8z"></path><path class="st6" d="M218.2,389.1c0,0,23-99.6,34.6-111.9s40.3-9.9,56.8,12.4s50.2,134.1,39.5,147.3S219.1,407.2,218.2,389.1z"></path><path class="st6" d="M306.1,270.7c0,0,109.1,77.9,104.9,102.8s-93.4,35-93.4,35v-22.3l25.7-21.6c0,0-39.1-32.6-51.8-56.5
		S296.8,263.6,306.1,270.7z"></path><path class="st2" d="M317.6,386.2c2.5-2.7,5.2-5.2,7.9-7.7s5.5-4.9,8.3-7.3s5.7-4.7,8.6-7s5.9-4.5,8.9-6.5
		c-2.5,2.7-5.2,5.2-7.9,7.7s-5.5,4.9-8.3,7.3s-5.7,4.7-8.6,7S320.7,384.2,317.6,386.2z"></path><path class="st3" d="M317.6,408.5c0,0-24.8-1.7-28-3.6s11-5.1,11-5.1s-15.2-8.3-18.9-13.6s5.8-2.4,5.8-2.4s-1.7-4.2,0.4-6
		s21.8,4.4,21.8,4.4l1.7-8.3l6.2,12.2L317.6,408.5z"></path><path class="st2" d="M308.1,391c-2-0.6-4-1.3-6-2s-3.9-1.5-5.8-2.2s-3.8-1.5-5.8-2.2c-1.9-0.8-3.9-1.2-6-1.4c1-0.4,2.1-0.5,3.2-0.5
		c1.1,0,2.1,0.2,3.2,0.4c2.1,0.4,4.1,1,6.1,1.8c2,0.8,3.9,1.7,5.7,2.7C304.6,388.6,306.4,389.7,308.1,391z"></path><path class="st2" d="M343.3,364.6c-3.9-3.3-7.6-6.8-11.3-10.3s-7.3-7.1-10.9-10.7s-7.1-7.3-10.6-11s-6.9-7.5-10.2-11.4
		c3.9,3.3,7.6,6.8,11.3,10.3s7.3,7.1,10.9,10.7s7.1,7.3,10.6,11S340,360.7,343.3,364.6z"></path><path class="st6" d="M251.4,187.5c1.3-0.3,2.6-0.3,3.9,0c1.2,0.2,2.5,0.6,3.6,1c1.2,0.4,2.3,0.9,3.5,1.5c1.1,0.6,2.2,1.3,3.2,2.1
		c-1.3-0.1-2.5-0.3-3.8-0.6c-1.2-0.3-2.4-0.7-3.5-1.1s-2.3-0.9-3.4-1.4S252.6,187.9,251.4,187.5z"></path><path class="st6" d="M259.1,174c0.7,0.3,1.4,0.7,2,1.2c0.6,0.5,1.2,1,1.7,1.5c1.1,1,2.1,2.1,3,3.3c1,1.2,1.8,2.4,2.7,3.6
		c0.8,1.3,1.6,2.6,2.2,4c-1.2-0.9-2.4-1.9-3.4-3c-1-1.1-2-2.2-3-3.3s-1.8-2.3-2.7-3.6c-0.4-0.6-0.8-1.2-1.2-1.9
		C260,175.2,259.6,174.6,259.1,174z"></path><path class="st6" d="M276.1,183c-0.7-0.5-1.2-1.1-1.7-1.7c-0.5-0.6-0.9-1.3-1.2-2c-0.4-0.7-0.6-1.4-0.8-2.1
		c-0.2-0.8-0.3-1.6-0.3-2.4c0.7,0.5,1.2,1.1,1.7,1.7c0.9,1.2,1.6,2.6,2,4.1C276,181.3,276.1,182.2,276.1,183z"></path></g></svg>