<svg transform="scale(1)" version="1.1" id="XhZi8AY1jb" xmlns="http://www.w3.org/2000/svg" xmlns:xlink="http://www.w3.org/1999/xlink" x="0px" y="0px" viewBox="0 0 500 500" xml:space="preserve" class="pbimage_pbimage__wrapper__image__0LEis false"><title>Collaboration</title><style type="text/css"> .st0{fill:#F2EBEB;} .st1{fill:#87CCDB;} .st2{fill:#469F78;} .st3{fill:#EA8383;} .st4{fill:#000001;} .st5{fill:#F3CB5C;} .st6{fill:#FFFFFF;} .st7{fill:#A04040;} .st8{clip-path:url(#SVGID_2_-XhZi8AY1jb);}
 .st7{fill:#A04040;}
 .st6{fill:#FFFFFF;}
 .st5{fill:#F3CB5C;}
 .st4{fill:#000001;}
 .st3{fill:#EA8383;}
 .st2{fill:#469F78;}
 .st1{fill:#87CCDB;}
 .st0{fill:#F2EBEB;}</style><g id="bubble"><circle class="st0" cx="228.3" cy="68.4" r="6.9" fill="#F2EBEB"></circle><circle class="st0" cx="450.3" cy="331.8" r="7.4" fill="#F2EBEB"></circle><circle class="st0" cx="320.2" cy="428.6" r="9.8" fill="#F2EBEB"></circle><circle class="st0" cx="80.7" cy="219.3" r="5.4" fill="#F2EBEB"></circle></g><g id="lines"><path class="st1" d="M430.2,371.8c0.5,3.8,0.5,7.7,0.2,11.6c-0.3,3.9-1.3,7.8-3,11.3c-0.9,1.8-2.3,3.4-3.9,4.6
		c-1.7,1.2-3.8,1.9-5.9,1.9c-2,0-4.1-0.2-6-0.8c-1-0.3-2-0.7-2.9-1.3c-1-0.6-1.8-1.5-2.2-2.6c-0.4-1.1-0.4-2.4,0-3.5
		c0.4-1,0.9-2,1.7-2.8c0.7-0.8,1.6-1.5,2.5-2c1.1-0.6,2.3-0.8,3.5-0.5c0.7,0.2,1.2,0.7,1.6,1.2c0.3,0.5,0.5,1,0.7,1.5
		c0.3,1,0.5,2,0.6,3c0.2,2,0.2,4-0.1,5.9c-0.2,2-0.7,3.9-1.5,5.7c-0.7,1.9-1.8,3.6-3.3,5c-0.7,0.7-1.6,1.3-2.5,1.7
		c-0.9,0.4-1.8,0.7-2.8,0.9c-1.9,0.3-3.9,0.1-5.8-0.5c1.9,0.4,3.8,0.3,5.7-0.1c0.9-0.2,1.8-0.5,2.6-1c0.8-0.5,1.5-1.1,2.1-1.8
		c2.5-2.7,3.5-6.5,3.9-10.2c0.2-1.8,0.1-3.7-0.1-5.5c-0.1-0.9-0.3-1.8-0.6-2.6c-0.1-0.4-0.3-0.7-0.5-1.1c-0.2-0.2-0.4-0.4-0.6-0.5
		c-0.7-0.1-1.4,0.1-2,0.4c-0.8,0.4-1.4,0.9-2,1.6c-1.1,1.2-1.8,3-1.2,4.3s2.1,2.2,3.8,2.8c1.7,0.5,3.5,0.8,5.4,0.8
		c1.8,0,3.5-0.5,5-1.5c1.5-1,2.7-2.4,3.6-4c1.8-3.3,2.9-6.9,3.4-10.7C430,379.4,430.3,375.6,430.2,371.8z"></path><path class="st2" d="M108.7,314.1c-0.6-2.8-0.8-5.7-0.8-8.6c0-3,0.7-5.9,2-8.5c0.7-1.4,1.8-2.6,3.1-3.5c1.3-0.9,2.9-1.4,4.4-1.5
		h1.2h1.1c0.8,0,1.5,0.1,2.2,0.3c0.8,0.2,1.6,0.4,2.3,0.8c0.9,0.4,1.6,1.1,2,1.9c0.4,0.9,0.4,1.9,0.1,2.8c-0.3,0.8-0.7,1.6-1.3,2.2
		c-0.6,0.6-1.2,1.1-1.9,1.5c-0.8,0.5-1.8,0.7-2.7,0.5c-0.6-0.1-1.1-0.4-1.4-0.8c-0.3-0.3-0.5-0.7-0.7-1.1c-0.3-0.7-0.5-1.5-0.7-2.2
		c-0.3-1.5-0.3-3-0.2-4.5c0.1-3,1.4-5.9,3.6-8c1.1-1,2.5-1.7,4-1.9c1.4-0.2,2.9-0.2,4.3,0.1c-1.4-0.1-2.8,0-4.2,0.4
		c-1.3,0.4-2.5,1.1-3.4,2.1c-0.9,1-1.6,2.2-2,3.5c-0.4,1.3-0.7,2.6-0.7,4c0,1.3,0.1,2.7,0.3,4c0.1,0.6,0.3,1.2,0.6,1.8
		c0.1,0.2,0.3,0.5,0.4,0.7c0.1,0.1,0.2,0.2,0.4,0.2c0.5,0,1-0.1,1.4-0.4c0.5-0.3,1-0.7,1.4-1.1c0.8-0.9,1.2-2.1,0.8-2.8
		s-1.6-1.4-2.8-1.6c-1.3-0.3-2.7-0.4-4-0.3c-1.2,0.1-2.4,0.4-3.5,1.1c-1.1,0.7-2,1.6-2.7,2.8c-1.3,2.4-2.2,5.1-2.4,7.8
		C108.6,308.4,108.5,311.3,108.7,314.1z"></path></g><g id="hand-3"><path class="st3" d="M132.8,105.7c0,0,27.1,34.2,43,41.3s108.7,30.2,114.6,34s-3.1,8.5-15.5,7.7c0,0,28,7.9,30,13.7
		s-8.3,6.9-20.1,4.9c0,0,18,6.1,21.5,10.6c4.1,5.3-2.8,10-26.5,7.6c0,0,16.4,8.5,17,13.2s-5.7,7.4-32.4,1.5
		c-25.8-5.7-59.1-20.7-64.2-18s10.3,18.6,14.7,28s3.9,20.3-3.9,15.8s-27.6-32.4-47.7-57.6s-78.9-62.5-78.9-62.5L132.8,105.7z"></path><path class="st4" d="M236.4,174.7c3.2,1.2,6.4,2.5,9.6,3.8s6.4,2.6,9.5,3.8c3.2,1.2,6.4,2.4,9.6,3.5s6.5,2,9.9,2.9
		c-3.5-0.1-6.9-0.6-10.3-1.4c-3.4-0.8-6.7-1.9-9.9-3.1c-3.2-1.2-6.4-2.6-9.5-4.2C242.2,178.4,239.2,176.7,236.4,174.7z"></path><path class="st4" d="M277.1,175.4c-0.2,1.4-0.3,2.8-0.2,4.1c0.1,0.6,0.3,1.1,0.6,1.6c0.3,0.4,0.7,0.8,1.2,1c1.2,0.5,2.5,0.9,3.8,1
		c1.4,0.2,2.8,0.3,4.2,0.4c-1.3,0.7-2.8,1.1-4.3,1.1c-1.6,0.1-3.1-0.1-4.6-0.8c-0.4-0.2-0.8-0.4-1.1-0.7c-0.4-0.3-0.6-0.7-0.9-1.1
		c-0.4-0.8-0.6-1.6-0.6-2.5C275.4,178.1,276.1,176.6,277.1,175.4z"></path><path class="st4" d="M291.7,194.3c-1.6,0.8-2.9,2-3.9,3.5c-0.4,0.7-0.6,1.4-0.6,2.2c0,0.2,0,0.4,0,0.6c0,0.2,0,0.4,0.1,0.6
		c0,0.2,0.1,0.3,0.1,0.5c0.1,0.2,0.1,0.3,0.2,0.4c0.6,1.2,2.2,2,3.9,2.5c1.7,0.5,3.5,1,5.3,1.3c-1.9,0.5-3.8,0.5-5.7,0.2
		c-1-0.1-2-0.4-2.9-0.9c-1-0.5-1.8-1.2-2.4-2.2c-0.1-0.3-0.3-0.5-0.4-0.8c-0.1-0.3-0.1-0.6-0.2-0.8c0-0.3,0-0.5,0-0.8
		c0-0.3,0-0.5,0-0.8c0.1-1.1,0.6-2.1,1.2-2.9C287.9,195.4,289.8,194.5,291.7,194.3z"></path><path class="st4" d="M281.9,229.4c-0.8,0.8-1.3,1.9-1.6,3c-0.1,0.5-0.1,1.1-0.1,1.6c0,0.5,0.1,1,0.3,1.6l-0.2-0.4
		c0.7,0.7,1.5,1.4,2.4,1.9c0.9,0.6,1.8,1.1,2.8,1.6c1,0.5,2,0.9,3,1.2c1,0.4,2.1,0.6,3.2,1c-1.1,0.2-2.3,0.3-3.5,0.2
		c-0.3,0-0.6,0-0.9-0.1l-0.9-0.2c-0.6-0.1-1.1-0.3-1.7-0.5c-1.1-0.4-2.2-0.9-3.2-1.6c-1-0.7-1.9-1.5-2.7-2.4l-0.1-0.2V236
		c-0.1-0.7-0.2-1.3-0.1-2c0.1-0.7,0.2-1.3,0.5-1.9C279.7,230.8,280.7,229.9,281.9,229.4z"></path><path class="st4" d="M200.5,257.8c0.6-1.6,1.6-2.9,3-3.9c0.8-0.6,1.8-0.8,2.8-0.7c0.3,0,0.5,0.1,0.8,0.2c0.2,0.1,0.4,0.2,0.6,0.3
		c0.4,0.2,0.7,0.4,1.1,0.7c1.3,1,2.5,2.2,3.4,3.5c0.5,0.7,0.9,1.4,1.2,2.1c0.4,0.7,0.5,1.6,0.5,2.4c-0.4-0.7-0.8-1.3-1.3-1.9
		c-0.5-0.6-1-1.1-1.6-1.6c-1.1-1-2.2-2-3.4-2.9c-0.5-0.4-1.1-0.8-1.7-1c-0.6-0.1-1.2,0-1.7,0.2C202.9,255.9,201.7,256.8,200.5,257.8
		z"></path><path class="st4" d="M299.8,222.6c-1.8,0.5-3.7,0.7-5.5,0.5c-2-0.1-3.9-0.8-5.5-2c-0.9-0.8-1.4-1.8-1.5-3c-0.1-1-0.1-2,0.1-3
		c0.1-0.5,0.3-1,0.6-1.4c0.3-0.4,0.6-0.8,1-1.2c0.8-0.6,1.8-0.9,2.8-0.8c-0.8,0.3-1.5,0.8-2.1,1.5c-0.5,0.6-0.7,1.4-0.7,2.2
		c0,0.8,0,1.6,0.2,2.4c0,0.3,0.2,0.7,0.3,1c0.2,0.3,0.4,0.6,0.6,0.8c1.3,1,2.8,1.7,4.4,2C296.2,222,298,222.3,299.8,222.6z"></path><path class="st4" d="M284.9,207.3c-4-0.6-7.9-1.4-11.8-2.2s-7.8-1.8-11.6-2.9s-7.7-2.2-11.5-3.4c-3.8-1.2-7.6-2.6-11.2-4.2
		c3.9,0.9,7.8,1.8,11.7,2.8s7.7,2,11.6,3s7.7,2.1,11.5,3.3S281.1,205.9,284.9,207.3z"></path><path class="st4" d="M279.9,225.4c-3.7-0.4-7.3-1-10.9-1.7s-7.2-1.6-10.7-2.5s-7.1-2-10.5-3.4c-1.7-0.6-3.4-1.3-5.1-2.2l-1.2-0.6
		l-1.2-0.7c-0.8-0.5-1.5-1-2.2-1.6c0.8,0.4,1.6,0.8,2.5,1.1l1.3,0.5l1.3,0.4c0.9,0.3,1.7,0.6,2.6,0.8s1.7,0.6,2.6,0.8
		s1.8,0.5,2.6,0.8l2.6,0.7l5.3,1.4c3.5,1,7.1,1.9,10.6,2.9S276.4,224.2,279.9,225.4z"></path><path class="st2" d="M135.8,134.5c0,0-4.3,2-12.9,11.2s-14.9,18.6-14.2,19.8s11.1,10.2,15.2,8.9c0,0,14.5-27,24.3-29
		S135.8,134.5,135.8,134.5z"></path><path class="st1" d="M10,138c0,0,8.3,12.1,29.6,0.5s12.7,18,42.9,18.8l66.7-58.2L80.2,28.9L10,138z"></path><path class="st5" d="M136.1,120.3c0,0-9.5,6.3-1,17.7s28.2,22.5,33.4,11.8s-7-21.1-13.8-25C147.9,120.9,139.1,117.1,136.1,120.3z"></path><path class="st5" d="M224.4,132c4.5-0.9,9.1-1,13.6-0.4c4.6,0.6,9,1.8,13.2,3.6c2.1,0.9,4.1,2,6.1,3.3c1.9,1.3,3.8,2.6,5.5,4.2
		c3.4,3.1,6.3,6.6,8.5,10.6c-2.8-3.4-6-6.6-9.5-9.4c-3.5-2.7-7.3-5-11.3-6.8c-4.1-1.8-8.3-3.1-12.7-3.9
		C233.3,132.3,228.9,131.9,224.4,132z"></path><path class="st5" d="M251,126.2c1-0.1,2.1,0,3.1,0.4c0.5,0.1,1,0.3,1.5,0.5s1,0.4,1.4,0.7c1.8,1,3.5,2.3,5,3.8
		c1.4,1.5,2.7,3.1,3.8,4.9c0.5,0.9,1,1.8,1.5,2.7s0.8,1.9,1.1,2.9c-0.7-0.8-1.3-1.6-2-2.3s-1.3-1.5-1.9-2.3c-1.3-1.5-2.6-3-4-4.4
		c-1.3-1.4-2.8-2.7-4.4-3.9c-0.8-0.6-1.6-1.1-2.4-1.6C252.8,126.9,251.9,126.5,251,126.2z"></path><path class="st6" d="M144.6,131c0.7,0.3,1.3,0.7,1.9,1.1c0.6,0.4,1.2,0.9,1.7,1.4c1.1,0.9,2.1,1.9,3.1,3l-0.8-0.3
		c1.6-0.1,3.2-0.1,4.8,0c0.8,0.1,1.6,0.1,2.4,0.2c0.8,0.1,1.6,0.2,2.4,0.4c-0.8,0.2-1.6,0.4-2.4,0.6c-0.8,0.1-1.6,0.3-2.4,0.4
		c-1.6,0.2-3.2,0.3-4.8,0.4h-0.5l-0.3-0.3c-0.9-1.1-1.9-2.2-2.7-3.3c-0.4-0.6-0.9-1.1-1.3-1.7S145.1,131.6,144.6,131z"></path></g><g id="hand-2"><path class="st7" d="M373.3,114.6c0,0-28.1,36.3-43.4,47.4s-100.6,62.7-106,68.1s5.2,8.3,18.1,4.6c0,0-27.7,14.8-28.6,21.3
		c-0.8,6.5,10.3,5.4,22.4,0.6c0,0-17.7,10.5-20.3,16.1c-3.1,6.5,5.3,10,29.8,2c0,0-15.4,12.8-14.9,17.9s8.3,10.7,35.2-1.7
		c25.9-11.9,56.9-32.2,63.1-37.8c1.3-1.2-6.6,22-9.1,32.9s0.5,22.3,7.7,15.8s22.6-34,45.2-60.6c25.4-30,74.8-71.9,74.8-71.9
		L373.3,114.6z"></path><path class="st4" d="M279.6,211.2c-2.6,2.7-5.4,5.2-8.3,7.5c-2.9,2.3-5.9,4.5-9.1,6.6c-3.1,2-6.4,3.9-9.8,5.5
		c-3.4,1.7-6.9,3-10.5,3.9c3.4-1.7,6.6-3.4,9.8-5.3s6.3-3.8,9.4-5.8s6.2-4.1,9.2-6.1L279.6,211.2z"></path><path class="st4" d="M236.7,221.2c1.3,1,2.2,2.4,2.7,4c0.3,0.9,0.3,1.9,0,2.8c-0.2,0.5-0.4,0.9-0.7,1.3c-0.3,0.4-0.6,0.7-1,1
		c-1.4,1-3,1.6-4.6,1.9c-1.6,0.3-3.2,0.2-4.8-0.2c1.5-0.4,3-0.9,4.4-1.4c1.4-0.4,2.6-1.1,3.8-1.9c0.5-0.3,0.9-0.8,1.1-1.3
		c0.2-0.6,0.3-1.2,0.3-1.8C237.8,224,237.3,222.6,236.7,221.2z"></path><path class="st4" d="M225.5,244.5c2.1-0.3,4.3,0.3,6,1.6c0.9,0.7,1.6,1.7,2,2.8c0.1,0.3,0.2,0.5,0.2,0.8c0.1,0.3,0.1,0.6,0.1,0.9
		c0,0.3,0,0.6,0,0.9c0,0.3-0.1,0.6-0.2,0.9c-0.4,1.1-1.1,2.1-2,2.8c-0.8,0.7-1.8,1.2-2.8,1.6c-1.9,0.8-3.9,1.1-6,1.1
		c1.8-0.7,3.6-1.6,5.3-2.5c1.6-0.9,3.1-2.1,3.6-3.6c0.1-0.2,0.1-0.4,0.1-0.6c0-0.2,0-0.4,0-0.6c0-0.2,0-0.4-0.1-0.6
		c0-0.2-0.1-0.4-0.1-0.6c-0.2-0.8-0.6-1.6-1.2-2.2C229.1,245.9,227.4,245,225.5,244.5z"></path><path class="st4" d="M243.9,279.3c1.4,0.2,2.6,1,3.5,2.1c0.4,0.6,0.8,1.2,1,1.9c0.2,0.7,0.3,1.4,0.4,2.1v0.2l-0.1,0.2
		c-0.6,1.2-1.4,2.2-2.3,3.2c-0.9,0.9-1.9,1.7-3,2.4c-0.5,0.3-1.1,0.6-1.7,0.9l-0.9,0.4l-0.9,0.3c-1.2,0.4-2.4,0.6-3.7,0.6
		c0.6-0.3,1.1-0.6,1.6-0.8s1.1-0.5,1.6-0.9c1-0.6,2-1.2,2.9-1.9c0.9-0.7,1.8-1.5,2.6-2.3c0.8-0.8,1.5-1.7,2.1-2.6l-0.1,0.4
		c0-0.6,0-1.1-0.1-1.7c-0.1-0.6-0.3-1.1-0.5-1.6C245.8,281,245,280,243.9,279.3z"></path><path class="st4" d="M336.4,290.8c-1.4-0.8-2.9-1.5-4.5-1.9c-0.6-0.2-1.3-0.1-1.9,0.1c-0.6,0.4-1.1,0.8-1.6,1.4
		c-1.1,1.2-2.1,2.5-3,3.9c-0.5,0.7-0.9,1.4-1.3,2.1c-0.4,0.7-0.7,1.5-1,2.3c-0.2-0.9-0.2-1.8,0-2.6c0.2-0.9,0.5-1.7,0.8-2.5
		c0.7-1.6,1.7-3.1,2.8-4.5c0.3-0.4,0.6-0.7,1-1c0.2-0.2,0.4-0.3,0.6-0.5c0.2-0.2,0.5-0.3,0.8-0.4c1-0.3,2.1-0.3,3.1,0.1
		C333.9,288.1,335.4,289.3,336.4,290.8z"></path><path class="st4" d="M223.4,276.3c1.9-0.7,3.7-1.4,5.4-2.2c1.6-0.7,3.1-1.7,4.2-3.1c0.2-0.3,0.4-0.6,0.5-1c0.1-0.4,0.2-0.7,0.1-1.1
		c0-0.9-0.1-1.8-0.4-2.6c-0.2-0.8-0.7-1.6-1.3-2.1c-0.7-0.6-1.6-1-2.5-1.1c1-0.3,2.1-0.2,3.1,0.2c0.5,0.3,0.9,0.6,1.3,1
		c0.4,0.4,0.7,0.9,0.9,1.4c0.4,1,0.7,2,0.8,3.1c0.2,1.2-0.2,2.4-0.9,3.4c-1.4,1.7-3.2,2.9-5.3,3.4
		C227.5,276,225.4,276.3,223.4,276.3z"></path><path class="st4" d="M235.7,256.6c3.7-2.3,7.4-4.4,11.2-6.5s7.6-4.1,11.4-6.1c3.8-2,7.7-3.9,11.6-5.8s7.8-3.8,11.7-5.6
		c-3.5,2.5-7.2,4.9-10.9,7c-3.7,2.2-7.5,4.2-11.4,6.2s-7.7,3.9-11.6,5.7S239.8,255.1,235.7,256.6z"></path><path class="st4" d="M245.1,274.7c3.4-2,6.9-3.9,10.4-5.7l10.5-5.5l5.2-2.7l2.6-1.4c0.9-0.5,1.7-0.9,2.6-1.4s1.7-1,2.6-1.4
		s1.7-1,2.5-1.5l1.3-0.8l1.2-0.8c0.8-0.5,1.6-1.1,2.4-1.8c-0.6,0.8-1.3,1.6-2,2.2l-1.1,1l-1.2,0.9c-1.6,1.2-3.2,2.4-4.9,3.4
		c-3.4,2.2-6.9,4.1-10.4,5.9s-7.1,3.5-10.8,5.1S248.9,273.4,245.1,274.7z"></path><path class="st2" d="M418.7,43.7c0,0-45.5,71-57.2,85.5c-3.5,4.4,65.2,55.4,68.5,55.1s61.1-41.5,61.1-41.5"></path><path class="st5" d="M423.6,165.2c0,0-4.3,9.1,4.9,7.8s12-9.3,7.7-13.1S424.4,162.9,423.6,165.2z"></path><path class="st1" d="M357.4,310.7c0,4.6-0.7,9.1-2.1,13.4c-1.4,4.4-3.4,8.5-5.9,12.4c-1.3,1.9-2.8,3.7-4.3,5.4
		c-1.6,1.7-3.3,3.2-5.1,4.6c-3.6,2.8-7.7,5-12,6.5c3.9-2.2,7.6-4.7,11-7.6c3.3-2.9,6.2-6.3,8.7-9.9c2.5-3.7,4.5-7.6,6.1-11.7
		C355.5,319.5,356.7,315.1,357.4,310.7z"></path><path class="st1" d="M358.3,338c-0.1,1-0.4,2.1-0.9,3c-0.2,0.5-0.5,0.9-0.8,1.4s-0.6,0.9-0.9,1.3c-1.3,1.6-2.9,3-4.6,4.2
		c-1.7,1.1-3.6,2.1-5.5,2.8c-1,0.3-2,0.7-2.9,0.9s-2,0.5-3,0.6c0.9-0.5,1.8-1,2.7-1.5s1.7-1,2.6-1.4c1.7-1,3.4-2,5-3.1
		c1.6-1.1,3.2-2.3,4.6-3.6c0.7-0.7,1.4-1.4,2-2.1C357.2,339.7,357.8,338.9,358.3,338z"></path></g><g id="hand-1"><path class="st5" d="M167.6,393.7c0,0,28.4-34,35.7-50.7s38.4-107.8,42.4-113.9s8.9,3.2,8.1,16.1c0,0,8.2-29.2,14.2-31.3
		s7.3,8.6,5.2,21c0,0,6.3-18.8,11-22.5c5.5-4.3,10.5,2.9,8,27.6c0,0,8.9-17.1,13.8-17.7s7.7,5.9,1.6,33.8
		c-5.9,26.9-21.4,61.7-18.5,67s19.4-10.8,29.2-15.4s21.1-4.1,16.4,4S308.7,343,282.4,364S230,436.7,230,436.7L167.6,393.7z"></path><path class="st4" d="M239.3,285.5c1.3-3.4,2.6-6.7,4-10s2.6-6.6,3.9-10s2.4-6.7,3.6-10.1s2.1-6.8,3-10.3c-0.1,3.6-0.6,7.2-1.5,10.7
		c-0.9,3.5-2,7-3.3,10.4c-1.3,3.4-2.7,6.7-4.3,9.9C243.1,279.4,241.3,282.5,239.3,285.5z"></path><path class="st4" d="M239.9,243.1c1.4,0.3,2.9,0.3,4.3,0.2c0.6-0.1,1.2-0.3,1.6-0.6c0.5-0.3,0.8-0.8,1-1.3c0.5-1.3,0.9-2.6,1.1-4
		c0.2-1.4,0.3-2.9,0.4-4.4c0.7,1.4,1.1,2.9,1.2,4.5c0.1,1.6-0.1,3.3-0.8,4.8c-0.2,0.4-0.4,0.8-0.7,1.1c-0.3,0.4-0.7,0.7-1.1,0.9
		c-0.8,0.4-1.7,0.7-2.6,0.6C242.7,244.7,241.1,244.1,239.9,243.1z"></path><path class="st4" d="M259.6,227.7c0.8,1.6,2.1,3,3.6,4.1c0.7,0.4,1.5,0.7,2.3,0.7c0.2,0,0.4,0,0.6,0c0.2,0,0.4,0,0.6-0.1l0.5-0.1
		c0.2-0.1,0.3-0.1,0.5-0.2c1.2-0.7,2.1-2.4,2.6-4.1c0.5-1.8,1-3.7,1.3-5.5c0.5,1.9,0.5,3.9,0.2,5.9c-0.1,1-0.5,2.1-0.9,3
		c-0.5,1-1.3,1.9-2.3,2.5c-0.3,0.2-0.5,0.3-0.8,0.4l-0.9,0.2c-0.3,0-0.6,0.1-0.8,0.1c-0.3,0-0.6,0-0.8-0.1c-1.1-0.1-2.1-0.6-3-1.3
		C260.7,231.7,259.7,229.8,259.6,227.7z"></path><path class="st4" d="M296.2,237.9c0.9,0.8,1.9,1.4,3.1,1.7c0.5,0.1,1.1,0.2,1.6,0.1c0.6,0,1.1-0.1,1.6-0.3l-0.4,0.2
		c0.7-0.8,1.4-1.6,2-2.5c0.6-0.9,1.2-1.9,1.6-2.9c0.5-1,0.9-2.1,1.2-3.2c0.4-1.1,0.6-2.2,1-3.4c0.2,1.2,0.3,2.4,0.2,3.6
		c0,0.3,0,0.6-0.1,0.9L308,233c-0.1,0.6-0.3,1.2-0.5,1.8c-0.4,1.2-0.9,2.3-1.6,3.3c-0.7,1.1-1.6,2-2.5,2.8l-0.2,0.1H303
		c-0.7,0.1-1.4,0.2-2.1,0.1c-0.7-0.1-1.4-0.2-2-0.6C297.7,240.1,296.7,239.1,296.2,237.9z"></path><path class="st4" d="M326,322.7c-1.6-0.6-3-1.7-4-3.1c-0.6-0.8-0.9-1.9-0.8-2.9c0-0.3,0.1-0.5,0.2-0.8c0.1-0.2,0.2-0.5,0.3-0.7
		c0.2-0.4,0.4-0.8,0.7-1.1c1-1.4,2.2-2.6,3.6-3.6c0.7-0.5,1.4-0.9,2.2-1.3c0.8-0.4,1.6-0.6,2.5-0.5c-0.7,0.4-1.4,0.8-2,1.4
		c-0.6,0.5-1.2,1.1-1.7,1.6c-1.1,1.1-2.1,2.3-3,3.6c-0.4,0.5-0.8,1.1-1,1.7c-0.1,0.6,0,1.3,0.2,1.8C324.1,320.2,325,321.5,326,322.7
		z"></path><path class="st4" d="M289.1,219.2c0.5,1.9,0.7,3.8,0.5,5.8c-0.1,2.1-0.8,4.1-2.1,5.7c-0.8,0.9-1.9,1.4-3,1.5
		c-1,0.1-2.1,0.1-3.1-0.1c-0.5-0.1-1-0.3-1.5-0.6c-0.5-0.3-0.9-0.6-1.2-1c-0.6-0.8-0.9-1.8-0.9-2.9c0.3,0.9,0.8,1.6,1.5,2.2
		c0.7,0.5,1.5,0.7,2.3,0.8c0.9,0,1.7,0,2.5-0.2c0.4,0,0.7-0.2,1-0.3c0.3-0.2,0.6-0.4,0.8-0.7c1-1.4,1.7-3,2-4.6
		C288.4,222.9,288.7,221.1,289.1,219.2z"></path><path class="st4" d="M273.1,234.8c-0.6,4.1-1.4,8.2-2.3,12.3s-1.9,8.1-3,12.2c-1.1,4-2.2,8-3.5,12c-1.2,4-2.6,7.9-4.3,11.8
		c0.9-4.1,1.9-8.1,2.9-12.2s2-8.1,3.1-12.1s2.2-8,3.4-12S271.7,238.8,273.1,234.8z"></path><path class="st4" d="M292,240c-0.4,3.8-1,7.6-1.8,11.4s-1.6,7.5-2.6,11.2s-2.1,7.4-3.5,11c-0.7,1.8-1.4,3.6-2.2,5.3l-0.6,1.3
		l-0.7,1.3c-0.5,0.8-1.1,1.6-1.7,2.3c0.5-0.8,0.9-1.7,1.2-2.6l0.5-1.3l0.4-1.4c0.3-0.9,0.6-1.8,0.9-2.7s0.6-1.8,0.8-2.7
		s0.5-1.8,0.8-2.7l0.8-2.8l1.5-5.5l3-11C289.8,247.3,290.8,243.6,292,240z"></path><path class="st3" d="M94,471.1c0,0,60.3-94.9,65.7-95.3s106.5,71.5,106.8,74.7S235,471.1,235,471.1H94z"></path><g><defs><path id="SVGID_1_" d="M94,471.1c0,0,60.3-94.9,65.7-95.3s106.5,71.5,106.8,74.7S235,471.1,235,471.1H94z"></path></defs><clipPath id="SVGID_2_-XhZi8AY1jb"><use xlink:href="#SVGID_1_" style="overflow: visible;"></use></clipPath><g class="st8"><path class="st6" d="M309.4,522.6c-0.3,0-0.5-0.2-0.5-0.5l-8.2-244c0-0.3,0.2-0.5,0.5-0.5c0,0,0,0,0,0c0.3,0,0.5,0.2,0.5,0.5
				l8.2,244C309.9,522.3,309.7,522.5,309.4,522.6C309.4,522.6,309.4,522.6,309.4,522.6L309.4,522.6z"></path><path class="st6" d="M287.5,522.6c-0.3,0-0.5-0.2-0.5-0.5l-2.5-243.5c0-0.3,0.2-0.5,0.4-0.5c0,0,0.1,0,0.1,0l0,0
				c0.3,0,0.5,0.2,0.5,0.5l2.5,243.6C288,522.3,287.8,522.6,287.5,522.6C287.5,522.6,287.5,522.6,287.5,522.6z"></path><path class="st6" d="M267.1,522.6c-0.3,0-0.5-0.2-0.5-0.5V278.5c0-0.3,0.2-0.5,0.5-0.5c0.3,0,0.5,0.2,0.5,0.5v243.5
				C267.6,522.3,267.4,522.6,267.1,522.6z"></path><path class="st6" d="M247.8,522.6L247.8,522.6c-0.3,0-0.5-0.2-0.5-0.5c0,0,0,0,0,0l1.9-243.6c0-0.3,0.2-0.5,0.5-0.5c0,0,0,0,0,0
				l0,0c0.3,0,0.5,0.2,0.5,0.5l-1.9,243.6C248.3,522.3,248.1,522.6,247.8,522.6z"></path><path class="st6" d="M226.9,522.6L226.9,522.6c-0.3,0-0.5-0.2-0.5-0.5c0,0,0,0,0,0l8.1-243.5c0-0.3,0.2-0.5,0.5-0.5c0,0,0,0,0,0
				c0.3,0,0.5,0.2,0.5,0.5c0,0,0,0,0,0l-8.1,243.5C227.4,522.4,227.2,522.6,226.9,522.6C226.9,522.6,226.9,522.6,226.9,522.6z"></path><path class="st6" d="M209.2,522.6L209.2,522.6c-0.3,0-0.5-0.2-0.5-0.5c0,0,0,0,0,0l10.1-243.5c0-0.3,0.2-0.5,0.5-0.5c0,0,0,0,0,0
				c0.3,0,0.5,0.3,0.5,0.5l-10.1,243.5C209.7,522.4,209.5,522.6,209.2,522.6z"></path><path class="st6" d="M198,522.6L198,522.6c-0.3,0-0.5-0.2-0.5-0.5c0,0,0,0,0,0l11.2-243.5c0-0.3,0.2-0.5,0.5-0.5c0,0,0,0,0,0
				c0.3,0,0.5,0.2,0.5,0.5c0,0,0,0,0,0l-11.2,243.5C198.5,522.4,198.3,522.6,198,522.6C198,522.6,198,522.6,198,522.6z"></path><path class="st6" d="M188.3,522.6L188.3,522.6c-0.3,0-0.5-0.2-0.5-0.5l8.2-243.5c0-0.3,0.2-0.5,0.5-0.5l0,0
				c0.3,0,0.5,0.2,0.5,0.5l-8.1,243.5C188.8,522.4,188.6,522.6,188.3,522.6z"></path><path class="st6" d="M372.3,340.9H109.7c-0.3,0-0.5-0.2-0.5-0.5c0-0.3,0.2-0.5,0.5-0.5h262.6c0.3,0,0.5,0.2,0.5,0.5
				S372.6,340.9,372.3,340.9z"></path><path class="st6" d="M112.7,331c-0.3,0-0.5-0.2-0.5-0.5s0.2-0.5,0.5-0.5l259.2-2.5c0.3,0,0.5,0.2,0.5,0.4c0,0,0,0,0,0.1
				c0,0.3-0.2,0.5-0.5,0.5c0,0,0,0,0,0L112.7,331L112.7,331z"></path><path class="st6" d="M371.9,314.9H171.3c-0.3,0-0.5-0.2-0.5-0.5c0-0.3,0.2-0.5,0.5-0.5h200.6c0.3,0,0.5,0.2,0.5,0.5
				S372.2,314.9,371.9,314.9z"></path><path class="st6" d="M372,301.5L372,301.5l-200.7-1.5c-0.3,0-0.5-0.2-0.5-0.5s0.2-0.5,0.5-0.5l0,0l200.7,1.5
				c0.3,0,0.5,0.2,0.5,0.5S372.3,301.5,372,301.5z"></path><path class="st6" d="M371.9,290.3L371.9,290.3l-200.6-6.2c-0.3,0-0.5-0.2-0.5-0.5c0,0,0,0,0,0c0-0.3,0.2-0.5,0.5-0.5l0,0
				l200.7,6.2c0.3,0,0.5,0.2,0.5,0.5c0,0,0,0,0,0C372.5,290.1,372.2,290.3,371.9,290.3C371.9,290.3,371.9,290.3,371.9,290.3z"></path><path class="st6" d="M371.9,278.3L371.9,278.3l-200.6-7.7c-0.3,0-0.5-0.2-0.5-0.5c0,0,0,0,0,0c0-0.3,0.2-0.5,0.5-0.5c0,0,0,0,0,0
				l200.6,7.7c0.3,0,0.5,0.2,0.5,0.5S372.2,278.3,371.9,278.3L371.9,278.3z"></path><path class="st6" d="M371.9,270.5L371.9,270.5L171.2,262c-0.3,0-0.5-0.2-0.5-0.5c0,0,0,0,0,0c0-0.3,0.2-0.5,0.5-0.5
				c0,0,0,0,0.1,0l200.6,8.6c0.3,0,0.5,0.2,0.5,0.5S372.2,270.6,371.9,270.5L371.9,270.5z"></path><path class="st6" d="M371.9,260.8L371.9,260.8l-200.6-6.2c-0.3,0-0.5-0.2-0.5-0.5s0.2-0.5,0.5-0.5l0,0l200.6,6.2
				c0.3,0,0.5,0.2,0.5,0.5C372.4,260.6,372.2,260.8,371.9,260.8z"></path><path class="st6" d="M54.5,397.3c-0.3,0-0.5-0.2-0.5-0.5c0-0.3,0.2-0.5,0.5-0.5c0,0,0,0,0,0l330.4-6.3l0,0c0.3,0,0.5,0.2,0.5,0.5
				s-0.2,0.5-0.5,0.5L54.5,397.3L54.5,397.3z"></path><path class="st6" d="M54.5,380.5c-0.3,0-0.5-0.2-0.5-0.5s0.2-0.5,0.5-0.5l329.8-2l0,0c0.3,0,0.5,0.2,0.5,0.5s-0.2,0.5-0.5,0.5
				L54.5,380.5z"></path><path class="st6" d="M384.3,364.9H54.5c-0.3,0-0.5-0.2-0.5-0.5s0.2-0.5,0.5-0.5h329.8c0.3,0,0.5,0.2,0.5,0.5
				C384.8,364.7,384.6,364.9,384.3,364.9z"></path><path class="st6" d="M384.4,351.6L384.4,351.6l-329.9-1.5c-0.3,0-0.5-0.2-0.5-0.5c0-0.3,0.2-0.5,0.5-0.5c0,0,0,0,0,0l0,0
				l329.9,1.5c0.3,0,0.5,0.2,0.5,0.5S384.7,351.6,384.4,351.6L384.4,351.6z"></path><path class="st6" d="M384.3,340.4L384.3,340.4l-329.8-6.2c-0.3,0-0.5-0.2-0.5-0.5c0,0,0,0,0,0c0-0.3,0.2-0.5,0.5-0.5l0,0
				l329.8,6.2c0.3,0,0.5,0.2,0.5,0.5C384.8,340.1,384.6,340.4,384.3,340.4z"></path><path class="st6" d="M384.2,328.3L384.2,328.3l-329.8-7.7c-0.3,0-0.5-0.2-0.5-0.5c0,0,0,0,0,0c0-0.3,0.2-0.5,0.5-0.5l329.8,7.7
				c0.3,0,0.5,0.2,0.5,0.5c0,0,0,0,0,0C384.7,328.1,384.5,328.3,384.2,328.3z"></path><path class="st6" d="M384.2,320.6L384.2,320.6L54.4,312c-0.3,0-0.5-0.2-0.5-0.5c0,0,0,0,0,0c0-0.3,0.2-0.5,0.5-0.5l329.8,8.6
				c0.3,0,0.5,0.2,0.5,0.5c0,0,0,0,0,0C384.7,320.4,384.5,320.6,384.2,320.6C384.2,320.6,384.2,320.6,384.2,320.6z"></path><path class="st6" d="M384.2,310.9L384.2,310.9l-329.8-6.2c-0.3,0-0.5-0.2-0.5-0.5c0,0,0,0,0,0c0-0.3,0.2-0.5,0.5-0.5c0,0,0,0,0,0
				l0,0l329.8,6.2c0.3,0,0.5,0.2,0.5,0.5C384.7,310.6,384.5,310.8,384.2,310.9z"></path><path class="st6" d="M184.1,487.4c-0.3,0-0.5-0.2-0.5-0.5l-8.2-201c0-0.3,0.2-0.5,0.5-0.5s0.5,0.2,0.5,0.5l8.2,201
				C184.6,487.2,184.4,487.4,184.1,487.4C184.1,487.5,184.1,487.5,184.1,487.4L184.1,487.4z"></path><path class="st6" d="M162.1,487.4c-0.3,0-0.5-0.2-0.5-0.5l-2.5-200.6c0-0.3,0.2-0.5,0.5-0.5c0,0,0,0,0,0l0,0
				c0.3,0,0.5,0.2,0.5,0.5l2.5,200.6C162.6,487.2,162.4,487.4,162.1,487.4C162.2,487.4,162.2,487.4,162.1,487.4L162.1,487.4z"></path><path class="st6" d="M141.8,487.4c-0.3,0-0.5-0.2-0.5-0.5V286.3c0-0.3,0.2-0.5,0.5-0.5c0.3,0,0.5,0.2,0.5,0.5v200.6
				C142.3,487.2,142.1,487.4,141.8,487.4z"></path><path class="st6" d="M122.4,487.4L122.4,487.4c-0.3,0-0.5-0.2-0.5-0.5c0,0,0,0,0,0l1.9-200.7c0-0.3,0.2-0.5,0.5-0.5c0,0,0,0,0,0
				c0.3,0,0.5,0.2,0.5,0.5L123,486.9C122.9,487.2,122.7,487.4,122.4,487.4z"></path><path class="st6" d="M101.6,487.4L101.6,487.4c-0.3,0-0.5-0.2-0.5-0.5c0,0,0,0,0,0l8.1-200.6c0-0.3,0.2-0.5,0.5-0.5
				c0.3,0,0.5,0.2,0.5,0.5l-8.1,200.6C102.1,487.2,101.8,487.4,101.6,487.4C101.6,487.4,101.6,487.4,101.6,487.4z"></path><path class="st6" d="M83.8,487.5L83.8,487.5c-0.3,0-0.5-0.2-0.5-0.5c0,0,0,0,0,0l10.1-200.6c0-0.3,0.2-0.5,0.4-0.5c0,0,0,0,0.1,0
				c0.3,0,0.5,0.2,0.5,0.5c0,0,0,0,0,0L84.3,487C84.3,487.3,84.1,487.5,83.8,487.5z"></path><path class="st6" d="M72.7,487.5L72.7,487.5c-0.3,0-0.5-0.2-0.5-0.5l11.2-200.6c0-0.3,0.2-0.5,0.5-0.5s0.5,0.2,0.5,0.5L73.2,487
				C73.1,487.3,72.9,487.5,72.7,487.5z"></path><path class="st6" d="M63,487.5L63,487.5c-0.3,0-0.5-0.3-0.5-0.5l8.1-200.6c0-0.3,0.2-0.5,0.5-0.5c0.3,0,0.5,0.2,0.5,0.5
				c0,0,0,0,0,0L63.5,487C63.5,487.2,63.2,487.4,63,487.5z"></path><path class="st6" d="M60.8,495.9c-0.3,0-0.5-0.2-0.5-0.5s0.2-0.5,0.5-0.5l330.4-6.2l0,0c0.3,0,0.5,0.2,0.5,0.5s-0.2,0.5-0.5,0.5
				L60.8,495.9L60.8,495.9z"></path><path class="st6" d="M60.8,479.1c-0.3,0-0.5-0.2-0.5-0.5s0.2-0.5,0.5-0.5l329.8-2l0,0c0.3,0,0.5,0.2,0.5,0.5s-0.2,0.5-0.5,0.5
				L60.8,479.1L60.8,479.1z"></path><path class="st6" d="M390.5,463.5H60.8c-0.3,0-0.5-0.2-0.5-0.5c0-0.3,0.2-0.5,0.5-0.5h329.8c0.3,0,0.5,0.2,0.5,0.5
				S390.8,463.5,390.5,463.5z"></path><path class="st6" d="M390.7,450.2L390.7,450.2l-329.9-1.5c-0.3,0-0.5-0.2-0.5-0.5c0-0.3,0.2-0.5,0.5-0.5l0,0l329.9,1.5
				c0.3,0,0.5,0.2,0.5,0.5C391.2,449.9,391,450.2,390.7,450.2z"></path><path class="st6" d="M390.5,439L390.5,439l-329.8-6.3c-0.3,0-0.5-0.2-0.5-0.5s0.2-0.5,0.5-0.5l0,0l329.8,6.3
				c0.3,0,0.5,0.2,0.5,0.5S390.8,439,390.5,439L390.5,439z"></path><path class="st6" d="M390.5,426.9L390.5,426.9l-329.8-7.7c-0.3,0-0.5-0.2-0.5-0.5s0.2-0.5,0.5-0.5l329.8,7.7
				c0.3,0,0.5,0.2,0.5,0.5c0,0,0,0,0,0C390.9,426.7,390.7,426.9,390.5,426.9z"></path><path class="st6" d="M390.5,419.2L390.5,419.2l-329.8-8.6c-0.3,0-0.5-0.2-0.5-0.5c0-0.3,0.2-0.5,0.5-0.5l329.8,8.6
				c0.3,0,0.5,0.2,0.5,0.5c0,0,0,0,0,0C391,419,390.7,419.2,390.5,419.2z"></path><path class="st6" d="M390.5,409.4L390.5,409.4l-329.8-6.2c-0.3,0-0.5-0.2-0.5-0.5s0.2-0.5,0.5-0.5l0,0l329.8,6.2
				c0.3,0,0.5,0.2,0.5,0.5S390.7,409.4,390.5,409.4L390.5,409.4z"></path></g></g><path class="st2" d="M204.2,283.3c-4.3-1.6-8.2-4-11.7-6.9c-5.4-4.3-9.7-9.8-12.7-16.1c-1-2.1-1.8-4.2-2.4-6.4
		c-1.2-4.4-1.8-9-1.6-13.5c0.6,4.4,1.6,8.8,3.1,13c1.5,4.2,3.5,8.1,6,11.8c2.5,3.6,5.4,7,8.6,10C196.8,278.3,200.4,281,204.2,283.3z
		"></path><path class="st2" d="M178.6,274.1c-0.9-0.5-1.7-1.2-2.4-2c-0.4-0.4-0.7-0.8-1-1.2s-0.6-0.9-0.8-1.3c-1-1.8-1.8-3.8-2.2-5.9
		c-0.4-2-0.6-4.1-0.6-6.2c0-1,0.1-2,0.2-3.1s0.3-2,0.6-3c0.2,1,0.3,2,0.4,3s0.3,2,0.4,3c0.3,2,0.6,3.9,1,5.8
		c0.4,1.9,0.9,3.8,1.6,5.6c0.3,0.9,0.8,1.8,1.2,2.7C177.4,272.5,178,273.3,178.6,274.1z"></path></g></svg>