<?xml version="1.0" encoding="UTF-8"?>
<svg id="Layer_1" xmlns="http://www.w3.org/2000/svg" version="1.1" viewBox="0 0 841.89 595.28">
  <!-- Generator: Adobe Illustrator 29.6.1, SVG Export Plug-In . SVG Version: 2.1.1 Build 9)  -->
  <defs>
    <style>
      .st0 {
        fill: #f4f4f5;
      }

      .st1 {
        font-size: 53.08px;
      }

      .st1, .st2, .st3 {
        fill: #0d2f4f;
      }

      .st1, .st3 {
        font-family: Poppins-Bold, Poppins;
        font-weight: 700;
      }

      .st4 {
        font-family: Poppins-SemiBold, Poppins;
        font-size: 16.37px;
        font-weight: 600;
      }

      .st4, .st5 {
        fill: #e86424;
      }

      .st3 {
        font-size: 69.55px;
      }
    </style>
  </defs>
  <rect class="st0" x="194.43" y="36.28" width="505.53" height="505.53"/>
  <g>
    <g>
      <path class="st2" d="M404.73,203.05c-94.71-49.95-174.53,0-174.53,0v93.58c3.02,51.49,86.86,94.33,86.86,94.33,88.52-46.85,87.67-94.71,87.67-94.71v-93.2ZM317.1,378.47s-73.86-37.74-76.53-83.11v-87.03s70.21-36.64,153.79,0v86.7s.74,42.17-77.26,83.45Z"/>
      <polygon class="st2" points="268.61 319.01 273.88 313.23 273.88 249.48 264.34 249.48 264.34 313.74 268.61 319.01"/>
      <polygon class="st2" points="363.74 319.01 369.01 313.23 369.01 249.48 359.47 249.48 359.47 313.74 363.74 319.01"/>
      <polygon class="st5" points="356.21 250.24 364.36 242.08 384.82 259.27 365.74 259.27 356.21 250.24"/>
      <polygon class="st5" points="249.54 259.27 268.61 259.27 317.46 218.61 337.88 235.43 346.67 226.64 317.46 202.8 249.54 259.27"/>
      <path class="st2" d="M354.2,318c-.75-25.85-22.59-32.1-22.59-32.1-1.76,14.08-4.27,15.53-4.27,15.53v-20.33c-9.79-4.27-19.83,0-19.83,0v21.08c-4.27-3.51-4.52-16.29-4.52-16.29-23.34,9.31-22.34,31.85-22.34,31.85-13.3,6.02-1.25,15.56-1.25,15.56,36.15,24.93,72.03,2.51,72.03,2.51,18.57-11.04,2.76-17.82,2.76-17.82ZM314.54,333.06s-23.58.35-29.62-7.03c0,0,45.68,5.27,65.76,0,0,0-8.03,8.28-36.14,7.03Z"/>
      <path class="st5" d="M324.08,259.27l40.16-39.91s9.79-2.76,6.15,6.15l-42.79,43.55s-2.76,3.26-6.02,1l-17.57-17.57s-2.46-6.83,6.68-6.68l13.4,13.46Z"/>
    </g>
    <text class="st1" transform="translate(423.79 231.03) scale(1.05 1)"><tspan x="0" y="0">THE</tspan></text>
    <text class="st3" transform="translate(423.79 292.25) scale(1.05 1)"><tspan x="0" y="0">BUILD</tspan></text>
    <text class="st3" transform="translate(423.79 354.83) scale(1.05 1)"><tspan x="0" y="0">CREW</tspan></text>
    <text class="st4" transform="translate(423.79 387.54) scale(1.05 1)"><tspan x="0" y="0">Vetted. Matched. Delivered.</tspan></text>
  </g>
</svg>